<svg width="1080" height="1080" viewBox="0 0 1080 1080" fill="none" xmlns="http://www.w3.org/2000/svg">
<path d="M443.966 270.067C494.294 268.317 532.34 301.41 545.071 318.175C556.305 302.139 592.254 270.067 646.176 270.067C700.099 270.067 736.048 312.147 747.281 340.042C801.204 484.366 634.942 615.57 545.071 676.799C455.2 615.57 282.198 484.366 340.614 340.042C349.601 312.876 393.638 271.816 443.966 270.067Z" fill="#3BE21C"/>
<path d="M747.281 340.042C736.048 312.147 700.099 270.067 646.176 270.067C737.605 480.413 561.396 646.873 545.071 676.799C634.942 615.57 801.204 484.366 747.281 340.042Z" fill="#40DB24"/>
<path d="M545.071 676.799C634.942 615.57 801.204 484.366 747.281 340.042C740.128 322.28 722.955 298.766 697.502 284.028C771.8 515.482 568.856 656.225 545.071 676.799Z" fill="#34D118"/>
<path fill-rule="evenodd" clip-rule="evenodd" d="M321.202 440.035C321.202 448.16 316.361 454.746 310.389 454.746C310.05 454.746 309.715 454.725 309.384 454.683C312.172 476.499 321.933 499.54 336.443 522.68C353.732 550.253 377.521 577.582 403.402 602.595C433.35 631.539 465.886 657.181 494.021 676.365L542.01 699.682C543.227 700.274 544.661 700.274 545.878 699.682L591.08 677.719C618.788 658.416 650.829 632.275 680.17 602.666C704.948 577.662 727.644 550.338 744.119 522.766C757.949 499.621 767.248 476.547 769.897 454.677C769.552 454.723 769.203 454.746 768.849 454.746C762.877 454.746 758.036 448.16 758.036 440.035C758.036 431.911 762.877 425.325 768.849 425.325C774.821 425.325 779.662 431.911 779.662 440.035C779.662 440.148 779.661 440.261 779.659 440.373C779.879 440.918 780 441.513 780 442.137C780 470 769.067 499.225 752.113 527.598C735.131 556.02 711.895 583.94 686.776 609.289C638.742 657.761 583.248 697.394 550.174 713.428C550.173 713.434 550.171 713.44 550.17 713.446C550.014 714.19 549.781 715.26 549.459 716.61C548.817 719.307 547.824 723.128 546.405 727.695C545.836 729.524 545.198 731.479 544.485 733.532L545.14 734.096C548.653 737.122 552.12 740.158 555.556 743.167C566.755 752.975 577.625 762.496 588.699 770.431C603.133 780.774 617.01 787.726 631.008 788.908C653.112 790.776 670.245 778.658 675.689 763.67C678.391 756.231 678.289 747.961 674.439 739.928C672.534 735.954 669.656 731.928 665.598 728.046C661.757 730.63 657.096 732.144 652.071 732.144C638.934 732.144 628.283 721.795 628.283 709.028C628.283 696.261 638.934 685.911 652.071 685.911C665.209 685.911 675.859 696.261 675.859 709.028C675.859 712.32 675.151 715.451 673.875 718.285C679.348 723.338 683.436 728.837 686.201 734.605C691.542 745.748 691.71 757.443 687.924 767.866C680.392 788.604 657.519 803.805 629.884 801.47C612.347 799.988 596.13 791.422 580.998 780.579C569.36 772.239 557.83 762.139 546.535 752.244L546.53 752.24C544.199 750.198 541.878 748.165 539.568 746.158C537.457 751.021 534.981 756.108 532.095 761.194C518.35 785.417 494.364 811.054 455.083 809.897C435.705 809.326 421.1 802.551 411.385 792.006C401.759 781.558 397.431 767.953 397.431 754.473C397.431 728.02 414.397 699.457 445.232 694.455C464.368 689.331 482.131 693.031 498.58 701.031C510.814 706.982 522.532 715.413 533.816 724.585L533.983 724.05C535.309 719.784 536.231 716.234 536.818 713.767C536.881 713.501 536.941 713.247 536.997 713.007C503.668 696.731 446.652 657.404 396.94 609.36C370.721 584.02 346.375 556.105 328.554 527.684C310.768 499.318 299.238 470.061 299.238 442.137C299.238 441.513 299.359 440.918 299.579 440.373C299.577 440.261 299.576 440.148 299.576 440.035C299.576 431.911 304.417 425.325 310.389 425.325C316.361 425.325 321.202 431.911 321.202 440.035ZM448.386 706.691C463.714 702.501 478.225 705.231 492.772 712.307C505.049 718.278 517.07 727.208 529.248 737.351C526.967 743.005 524.155 749.074 520.733 755.106C507.945 777.642 487.559 798.238 455.476 797.294C439.172 796.813 428.096 791.242 421.052 783.596C413.919 775.853 410.407 765.422 410.407 754.473C410.407 732.172 424.661 710.422 447.654 706.847L448.025 706.789L448.386 706.691Z" fill="black"/>
<path fill-rule="evenodd" clip-rule="evenodd" d="M543.317 442.344C534.477 442.344 527.775 449.588 527.775 457.92C527.775 466.253 534.477 473.497 543.317 473.497C552.158 473.497 558.86 466.253 558.86 457.92C558.86 449.588 552.158 442.344 543.317 442.344ZM560.065 476.266C564.764 471.712 567.741 465.239 567.741 457.92C567.741 443.732 556.55 432.718 543.317 432.718C530.085 432.718 518.894 443.732 518.894 457.92C518.894 465.239 521.871 471.712 526.57 476.266C516.711 479.863 510.203 486.484 506.023 493.238C502.987 498.141 501.232 503.016 500.232 506.65C499.73 508.475 499.412 510.009 499.218 511.109C499.12 511.66 499.054 512.104 499.01 512.423C498.988 512.583 498.971 512.712 498.96 512.807L498.946 512.926L498.942 512.966L498.94 512.981L498.939 512.988C498.939 512.991 498.939 512.993 503.352 513.528C507.765 514.063 507.765 514.066 507.765 514.068L507.764 514.078L507.767 514.047C507.772 514.01 507.78 513.941 507.794 513.843C507.821 513.646 507.867 513.333 507.94 512.921C508.086 512.095 508.336 510.878 508.743 509.401C509.56 506.432 510.983 502.501 513.398 498.601C518.098 491.007 526.762 483.123 543.317 483.123C559.873 483.123 568.537 491.007 573.237 498.601C575.652 502.501 577.075 506.432 577.892 509.401C578.299 510.878 578.549 512.095 578.695 512.921C578.768 513.333 578.814 513.646 578.841 513.843C578.855 513.941 578.863 514.01 578.868 514.047L578.87 514.068C578.87 514.066 578.87 514.063 583.283 513.528C587.696 512.993 587.696 512.991 587.696 512.988L587.693 512.966L587.689 512.926L587.675 512.807C587.664 512.712 587.647 512.583 587.625 512.423C587.581 512.104 587.515 511.66 587.417 511.109C587.223 510.009 586.905 508.475 586.403 506.65C585.403 503.016 583.648 498.141 580.612 493.238C576.432 486.484 569.924 479.863 560.065 476.266Z" fill="white"/>
<path fill-rule="evenodd" clip-rule="evenodd" d="M463.426 427.342C453.47 427.342 444.881 435.902 444.881 447.111C444.881 458.319 453.47 466.879 463.426 466.879C473.382 466.879 481.971 458.319 481.971 447.111C481.971 435.902 473.382 427.342 463.426 427.342ZM435.309 447.111C435.309 431.285 447.611 417.929 463.426 417.929C479.241 417.929 491.543 431.285 491.543 447.111C491.543 462.936 479.241 476.292 463.426 476.292C463.002 476.292 462.58 476.283 462.162 476.264C461.987 476.283 461.81 476.292 461.631 476.292C442.6 476.292 432.335 486.24 426.579 496.459C423.66 501.642 421.934 506.872 420.942 510.836C420.448 512.808 420.142 514.442 419.961 515.565C419.871 516.126 419.812 516.557 419.777 516.838C419.759 516.978 419.748 517.081 419.741 517.143L419.735 517.203L419.735 517.204L419.734 517.207C419.489 519.793 417.16 521.696 414.529 521.457C411.897 521.218 409.96 518.926 410.203 516.338L414.969 516.77C410.203 516.338 410.204 516.335 410.204 516.333L410.204 516.327L410.206 516.313L410.21 516.271L410.224 516.139C410.236 516.03 410.253 515.879 410.277 515.688C410.325 515.307 410.399 514.768 410.507 514.093C410.724 512.745 411.081 510.849 411.648 508.585C412.776 504.077 414.763 498.011 418.206 491.897C423.331 482.799 431.753 473.553 445.151 469.297C439.089 463.896 435.309 455.883 435.309 447.111Z" fill="white"/>
<path fill-rule="evenodd" clip-rule="evenodd" d="M620.653 427.342C629.703 427.342 637.512 435.902 637.512 447.111C637.512 458.319 629.703 466.879 620.653 466.879C611.602 466.879 603.793 458.319 603.793 447.111C603.793 435.902 611.602 427.342 620.653 427.342ZM646.213 447.111C646.213 431.285 635.03 417.929 620.653 417.929C606.275 417.929 595.092 431.285 595.092 447.111C595.092 462.936 606.275 476.292 620.653 476.292C621.038 476.292 621.421 476.283 621.802 476.264C621.96 476.283 622.121 476.292 622.284 476.292C639.585 476.292 648.917 486.24 654.15 496.459C656.804 501.642 658.372 506.872 659.274 510.836C659.723 512.808 660.001 514.442 660.166 515.565C660.248 516.126 660.301 516.557 660.333 516.838C660.349 516.978 660.36 517.081 660.366 517.143L660.372 517.203L660.372 517.204L660.372 517.207C660.595 519.793 662.713 521.696 665.104 521.457C667.497 521.218 669.257 518.926 669.036 516.338L664.704 516.77C669.036 516.338 669.036 516.335 669.036 516.333L669.036 516.327L669.034 516.313L669.031 516.271L669.018 516.139C669.007 516.03 668.991 515.879 668.97 515.688C668.926 515.307 668.859 514.768 668.76 514.093C668.563 512.745 668.239 510.849 667.724 508.585C666.698 504.077 664.892 498.011 661.761 491.897C657.102 482.799 649.446 473.553 637.266 469.297C642.777 463.896 646.213 455.883 646.213 447.111Z" fill="white"/>
</svg>
