<svg width="1080" height="1080" viewBox="0 0 1080 1080" fill="none" xmlns="http://www.w3.org/2000/svg">
<path d="M486.655 270.32C514.94 269.337 536.321 287.935 543.476 297.357C549.79 288.345 569.993 270.32 600.297 270.32C630.601 270.32 650.804 293.969 657.118 309.646C687.422 390.756 593.984 464.492 543.476 498.903C492.969 464.492 395.742 390.756 428.572 309.646C433.623 294.379 458.371 271.303 486.655 270.32Z" fill="#3BE21C"/>
<path d="M657.118 309.646C650.804 293.969 630.601 270.32 600.297 270.32C651.68 388.534 552.651 482.085 543.476 498.903C593.984 464.492 687.422 390.756 657.118 309.646Z" fill="#40DB24"/>
<path d="M543.476 498.903C593.984 464.492 687.422 390.756 657.118 309.646C653.098 299.664 643.447 286.449 629.142 278.166C670.897 408.243 556.843 487.34 543.476 498.903Z" fill="#34D118"/>
<path fill-rule="evenodd" clip-rule="evenodd" d="M417.662 365.843C417.662 370.409 414.941 374.11 411.585 374.11C411.395 374.11 411.206 374.098 411.02 374.075C412.587 386.336 418.073 399.285 426.228 412.289C435.944 427.785 449.313 443.144 463.858 457.201C480.689 473.467 498.974 487.878 514.786 498.66L541.756 511.764C542.44 512.096 543.245 512.096 543.93 511.764L569.333 499.421C584.905 488.573 602.912 473.881 619.401 457.241C633.326 443.189 646.082 427.833 655.341 412.338C663.113 399.33 668.339 386.362 669.828 374.072C669.634 374.097 669.437 374.11 669.239 374.11C665.883 374.11 663.162 370.409 663.162 365.843C663.162 361.277 665.883 357.576 669.239 357.576C672.595 357.576 675.315 361.277 675.315 365.843C675.315 365.906 675.315 365.97 675.314 366.033C675.437 366.339 675.506 366.674 675.506 367.024C675.506 382.683 669.361 399.108 659.833 415.053C650.289 431.026 637.231 446.717 623.114 460.963C596.119 488.204 564.932 510.478 546.344 519.489C546.343 519.492 546.342 519.496 546.342 519.499C546.254 519.917 546.123 520.519 545.942 521.277C545.581 522.793 545.023 524.94 544.226 527.507C543.906 528.535 543.547 529.633 543.147 530.788L543.515 531.105C545.489 532.805 547.437 534.511 549.368 536.202C555.662 541.715 561.771 547.065 567.995 551.524C576.106 557.337 583.905 561.244 591.772 561.909C604.195 562.959 613.824 556.148 616.883 547.725C618.401 543.544 618.344 538.896 616.18 534.382C615.11 532.149 613.492 529.886 611.212 527.704C609.053 529.157 606.434 530.008 603.61 530.008C596.227 530.008 590.241 524.191 590.241 517.016C590.241 509.841 596.227 504.025 603.61 504.025C610.993 504.025 616.979 509.841 616.979 517.016C616.979 518.866 616.581 520.626 615.864 522.219C618.939 525.059 621.237 528.149 622.791 531.39C625.792 537.653 625.887 544.225 623.759 550.083C619.526 561.738 606.671 570.281 591.141 568.968C581.285 568.136 572.171 563.322 563.667 557.228C557.126 552.541 550.647 546.865 544.299 541.304L544.296 541.302C542.986 540.154 541.681 539.011 540.383 537.883C539.197 540.616 537.805 543.475 536.183 546.334C528.459 559.947 514.979 574.354 492.903 573.704C482.013 573.384 473.805 569.576 468.345 563.65C462.935 557.778 460.503 550.132 460.503 542.556C460.503 527.69 470.037 511.637 487.367 508.827C498.121 505.947 508.104 508.026 517.348 512.522C524.224 515.866 530.809 520.605 537.151 525.759L537.245 525.459C537.99 523.061 538.508 521.066 538.838 519.68C538.873 519.53 538.907 519.387 538.938 519.252C520.208 510.105 488.165 488.004 460.227 461.003C445.492 446.762 431.809 431.074 421.794 415.102C411.798 399.16 405.318 382.717 405.318 367.024C405.318 366.674 405.386 366.339 405.51 366.033C405.509 365.97 405.508 365.906 405.508 365.843C405.508 361.277 408.229 357.576 411.585 357.576C414.941 357.576 417.662 361.277 417.662 365.843ZM489.139 515.703C497.753 513.348 505.909 514.883 514.084 518.859C520.984 522.215 527.74 527.234 534.583 532.934C533.301 536.111 531.721 539.522 529.798 542.912C522.612 555.577 511.154 567.152 493.124 566.621C483.961 566.351 477.737 563.22 473.778 558.923C469.769 554.572 467.795 548.71 467.795 542.556C467.795 530.023 475.806 517.8 488.728 515.791L488.936 515.758L489.139 515.703Z" fill="black"/>
<path fill-rule="evenodd" clip-rule="evenodd" d="M542.491 367.14C537.522 367.14 533.756 371.211 533.756 375.894C533.756 380.577 537.522 384.648 542.491 384.648C547.459 384.648 551.225 380.577 551.225 375.894C551.225 371.211 547.459 367.14 542.491 367.14ZM551.903 386.204C554.543 383.645 556.217 380.007 556.217 375.894C556.217 367.92 549.927 361.73 542.491 361.73C535.054 361.73 528.765 367.92 528.765 375.894C528.765 380.007 530.438 383.645 533.079 386.204C527.538 388.226 523.88 391.947 521.531 395.742C519.825 398.498 518.839 401.238 518.277 403.28C517.995 404.306 517.816 405.168 517.707 405.786C517.652 406.096 517.614 406.345 517.59 406.525C517.577 406.614 517.568 406.687 517.562 406.741L517.554 406.807L517.552 406.83L517.551 406.838L517.55 406.842C517.55 406.844 517.55 406.845 520.03 407.146C522.51 407.446 522.51 407.448 522.51 407.449L522.509 407.454L522.511 407.437C522.514 407.416 522.519 407.378 522.526 407.322C522.542 407.212 522.568 407.036 522.609 406.805C522.691 406.34 522.831 405.656 523.06 404.826C523.519 403.158 524.319 400.949 525.676 398.757C528.317 394.489 533.186 390.058 542.491 390.058C551.795 390.058 556.664 394.489 559.305 398.757C560.662 400.949 561.463 403.158 561.922 404.826C562.15 405.656 562.29 406.34 562.373 406.805C562.414 407.036 562.44 407.212 562.455 407.322C562.462 407.378 562.467 407.416 562.47 407.437L562.471 407.449C562.471 407.448 562.471 407.446 564.951 407.146C567.431 406.845 567.431 406.844 567.431 406.842L567.43 406.83L567.427 406.807L567.42 406.741C567.413 406.687 567.404 406.614 567.392 406.525C567.367 406.345 567.329 406.096 567.275 405.786C567.165 405.168 566.987 404.306 566.705 403.28C566.143 401.238 565.156 398.498 563.45 395.742C561.101 391.947 557.443 388.226 551.903 386.204Z" fill="white"/>
<path fill-rule="evenodd" clip-rule="evenodd" d="M497.592 358.709C491.996 358.709 487.169 363.519 487.169 369.819C487.169 376.118 491.996 380.928 497.592 380.928C503.187 380.928 508.014 376.118 508.014 369.819C508.014 363.519 503.187 358.709 497.592 358.709ZM481.79 369.819C481.79 360.924 488.704 353.418 497.592 353.418C506.479 353.418 513.393 360.924 513.393 369.819C513.393 378.713 506.479 386.219 497.592 386.219C497.353 386.219 497.116 386.213 496.881 386.203C496.783 386.213 496.684 386.219 496.583 386.219C485.888 386.219 480.119 391.809 476.884 397.552C475.243 400.465 474.273 403.404 473.716 405.632C473.438 406.74 473.266 407.658 473.165 408.29C473.114 408.605 473.081 408.847 473.061 409.005C473.051 409.084 473.045 409.142 473.041 409.176L473.037 409.21L473.037 409.211L473.037 409.213C472.899 410.666 471.59 411.735 470.112 411.601C468.633 411.467 467.544 410.179 467.681 408.724L470.359 408.967C467.681 408.724 467.681 408.723 467.681 408.721L467.681 408.718L467.682 408.71L467.684 408.687L467.692 408.612C467.699 408.551 467.709 408.466 467.722 408.359C467.749 408.145 467.79 407.842 467.851 407.463C467.973 406.705 468.174 405.639 468.492 404.367C469.127 401.833 470.243 398.424 472.178 394.989C475.059 389.875 479.791 384.679 487.321 382.287C483.914 379.252 481.79 374.749 481.79 369.819Z" fill="white"/>
<path fill-rule="evenodd" clip-rule="evenodd" d="M585.953 358.709C591.039 358.709 595.427 363.519 595.427 369.819C595.427 376.118 591.039 380.928 585.953 380.928C580.866 380.928 576.478 376.118 576.478 369.819C576.478 363.519 580.866 358.709 585.953 358.709ZM600.318 369.819C600.318 360.924 594.033 353.418 585.953 353.418C577.873 353.418 571.588 360.924 571.588 369.819C571.588 378.713 577.873 386.219 585.953 386.219C586.169 386.219 586.385 386.213 586.599 386.203C586.688 386.213 586.778 386.219 586.87 386.219C596.593 386.219 601.837 391.809 604.778 397.552C606.269 400.465 607.151 403.404 607.658 405.632C607.91 406.74 608.067 407.658 608.159 408.29C608.205 408.605 608.235 408.847 608.253 409.005C608.262 409.084 608.268 409.142 608.271 409.176L608.275 409.21L608.275 409.211L608.275 409.213C608.4 410.666 609.59 411.735 610.934 411.601C612.279 411.467 613.268 410.179 613.144 408.724L610.71 408.967C613.144 408.724 613.144 408.723 613.144 408.721L613.144 408.718L613.143 408.71L613.141 408.687L613.134 408.612C613.128 408.551 613.119 408.466 613.107 408.359C613.082 408.145 613.045 407.842 612.989 407.463C612.878 406.705 612.696 405.639 612.406 404.367C611.83 401.833 610.815 398.424 609.056 394.989C606.437 389.875 602.135 384.679 595.289 382.287C598.387 379.252 600.318 374.749 600.318 369.819Z" fill="white"/>
<path d="M324.9 658.185C324.9 664.332 323.908 669.925 321.922 674.964C319.975 680.003 317.208 684.337 313.619 687.963C310.03 691.552 305.735 694.339 300.734 696.324C295.733 698.31 290.178 699.302 284.069 699.302H253.146V617.068H284.069C290.178 617.068 295.733 618.06 300.734 620.045C305.735 622.031 310.03 624.837 313.619 628.464C317.208 632.052 319.975 636.386 321.922 641.463C323.908 646.503 324.9 652.077 324.9 658.185ZM312.416 658.185C312.416 653.298 311.748 648.927 310.412 645.071C309.076 641.177 307.167 637.894 304.685 635.221C302.242 632.51 299.264 630.449 295.752 629.036C292.278 627.624 288.383 626.917 284.069 626.917H265.401V689.452H284.069C288.383 689.452 292.278 688.746 295.752 687.334C299.264 685.921 302.242 683.878 304.685 681.206C307.167 678.495 309.076 675.212 310.412 671.356C311.748 667.5 312.416 663.11 312.416 658.185Z" fill="black"/>
<path d="M440.999 658.185C440.999 664.332 440.006 669.925 438.021 674.964C436.074 680.003 433.306 684.337 429.718 687.963C426.129 691.552 421.834 694.339 416.833 696.324C411.831 698.31 406.277 699.302 400.168 699.302H369.244V617.068H400.168C406.277 617.068 411.831 618.06 416.833 620.045C421.834 622.031 426.129 624.837 429.718 628.464C433.306 632.052 436.074 636.386 438.021 641.463C440.006 646.503 440.999 652.077 440.999 658.185ZM428.515 658.185C428.515 653.298 427.847 648.927 426.511 645.071C425.174 641.177 423.266 637.894 420.784 635.221C418.341 632.51 415.363 630.449 411.85 629.036C408.376 627.624 404.482 626.917 400.168 626.917H381.499V689.452H400.168C404.482 689.452 408.376 688.746 411.85 687.334C415.363 685.921 418.341 683.878 420.784 681.206C423.266 678.495 425.174 675.212 426.511 671.356C427.847 667.5 428.515 663.11 428.515 658.185Z" fill="black"/>
<path d="M479.682 656.696C482.812 656.696 485.561 656.314 487.928 655.551C490.333 654.787 492.338 653.718 493.941 652.344C495.545 650.931 496.747 649.27 497.549 647.362C498.351 645.415 498.751 643.277 498.751 640.948C498.751 636.214 497.186 632.644 494.056 630.239C490.963 627.834 486.306 626.631 480.083 626.631H468.572V656.696H479.682ZM518.05 699.302H507.17C504.993 699.302 503.409 698.443 502.416 696.725L482.087 668.207C481.438 667.252 480.732 666.584 479.968 666.202C479.204 665.782 478.059 665.572 476.532 665.572H468.572V699.302H456.374V617.068H480.083C485.389 617.068 489.951 617.621 493.769 618.728C497.625 619.797 500.794 621.344 503.275 623.367C505.795 625.352 507.647 627.757 508.83 630.583C510.052 633.408 510.663 636.576 510.663 640.089C510.663 642.952 510.224 645.644 509.346 648.163C508.468 650.683 507.17 652.955 505.452 654.978C503.772 656.963 501.71 658.681 499.267 660.132C496.823 661.583 494.056 662.69 490.963 663.453C492.49 664.37 493.807 665.649 494.915 667.29L518.05 699.302Z" fill="black"/>
<path d="M579.653 689.395L579.596 699.302H528.628V617.068H579.596V626.975H540.883V653.031H572.036V662.594H540.883V689.395H579.653Z" fill="black"/>
<path d="M638.425 668.665L626.227 636.767C625.349 634.591 624.471 631.842 623.593 628.521C623.173 630.163 622.734 631.69 622.276 633.102C621.856 634.515 621.436 635.775 621.016 636.882L608.876 668.665H638.425ZM662.534 699.302H653.143C652.074 699.302 651.196 699.035 650.508 698.501C649.821 697.966 649.325 697.279 649.019 696.439L641.747 677.369H605.497L598.224 696.439C597.957 697.164 597.461 697.832 596.735 698.443C596.01 699.016 595.132 699.302 594.101 699.302H584.709L617.466 617.068H629.778L662.534 699.302Z" fill="black"/>
<path d="M759.273 617.068V699.302H748.622V640.776C748.622 639.898 748.641 638.962 748.679 637.97C748.755 636.977 748.832 635.966 748.908 634.935L721.535 685.157C720.58 687.028 719.111 687.963 717.125 687.963H715.407C713.422 687.963 711.971 687.028 711.055 685.157L683.166 634.763C683.395 636.901 683.51 638.905 683.51 640.776V699.302H672.801V617.068H681.849C682.918 617.068 683.739 617.182 684.312 617.411C684.923 617.602 685.495 618.175 686.03 619.129L713.518 668.378C714.052 669.371 714.548 670.421 715.006 671.528C715.465 672.635 715.904 673.742 716.324 674.849C717.125 672.597 718.061 670.421 719.13 668.321L746.102 619.129C746.598 618.175 747.133 617.602 747.706 617.411C748.316 617.182 749.156 617.068 750.225 617.068H759.273Z" fill="black"/>
<path d="M822.165 630.468C821.784 631.117 821.383 631.594 820.963 631.9C820.543 632.205 820.008 632.358 819.359 632.358C818.672 632.358 817.89 632.052 817.011 631.442C816.133 630.792 815.026 630.086 813.69 629.323C812.392 628.521 810.827 627.815 808.994 627.204C807.162 626.555 804.966 626.23 802.408 626.23C800.003 626.23 797.884 626.555 796.052 627.204C794.258 627.815 792.75 628.674 791.528 629.781C790.306 630.85 789.371 632.129 788.722 633.618C788.111 635.068 787.806 636.653 787.806 638.371C787.806 640.585 788.359 642.418 789.466 643.868C790.612 645.319 792.101 646.56 793.933 647.591C795.766 648.621 797.846 649.519 800.175 650.282C802.504 651.046 804.89 651.847 807.333 652.687C809.777 653.489 812.163 654.424 814.492 655.493C816.821 656.562 818.901 657.918 820.734 659.559C822.566 661.163 824.036 663.148 825.143 665.515C826.289 667.844 826.861 670.707 826.861 674.105C826.861 677.732 826.231 681.13 824.971 684.298C823.75 687.467 821.955 690.235 819.588 692.602C817.221 694.969 814.301 696.84 810.827 698.214C807.391 699.55 803.477 700.219 799.087 700.219C796.453 700.219 793.895 699.951 791.413 699.417C788.932 698.92 786.584 698.214 784.37 697.298C782.155 696.343 780.075 695.217 778.128 693.919C776.219 692.583 774.501 691.094 772.974 689.452L776.467 683.611C776.81 683.153 777.211 682.771 777.669 682.466C778.166 682.16 778.719 682.008 779.33 682.008C780.132 682.008 781.048 682.428 782.079 683.268C783.148 684.108 784.446 685.043 785.973 686.074C787.538 687.066 789.39 687.983 791.528 688.822C793.704 689.662 796.338 690.082 799.431 690.082C801.95 690.082 804.203 689.758 806.188 689.109C808.173 688.422 809.834 687.467 811.17 686.245C812.545 684.986 813.595 683.478 814.32 681.721C815.045 679.965 815.408 678.018 815.408 675.88C815.408 673.475 814.854 671.509 813.747 669.982C812.64 668.455 811.17 667.176 809.338 666.145C807.505 665.114 805.425 664.236 803.096 663.511C800.767 662.785 798.381 662.041 795.937 661.277C793.494 660.476 791.108 659.559 788.779 658.529C786.45 657.498 784.37 656.162 782.537 654.52C780.704 652.84 779.235 650.759 778.128 648.278C777.02 645.758 776.467 642.666 776.467 639.001C776.467 636.061 777.039 633.217 778.185 630.468C779.33 627.719 780.991 625.295 783.167 623.195C785.381 621.057 788.092 619.358 791.299 618.098C794.506 616.8 798.171 616.151 802.294 616.151C806.913 616.151 811.151 616.896 815.007 618.385C818.901 619.836 822.28 621.935 825.143 624.684L822.165 630.468Z" fill="black"/>
<path d="M225.49 748.589V788.619H221.481V769.893H199.777V788.619H195.769V748.589H199.777V766.571H221.481V748.589H225.49Z" fill="black"/>
<path d="M252.618 789.02C248.915 789.02 245.555 788.161 242.539 786.443C239.523 784.686 237.137 782.262 235.381 779.17C233.663 776.039 232.804 772.508 232.804 768.575C232.804 764.643 233.663 761.131 235.381 758.038C237.137 754.908 239.523 752.484 242.539 750.766C245.555 749.009 248.915 748.131 252.618 748.131C256.359 748.131 259.738 749.009 262.754 750.766C265.77 752.484 268.137 754.908 269.855 758.038C271.573 761.131 272.432 764.643 272.432 768.575C272.432 772.508 271.573 776.039 269.855 779.17C268.137 782.262 265.77 784.686 262.754 786.443C259.738 788.161 256.359 789.02 252.618 789.02ZM252.618 785.526C255.596 785.526 258.268 784.839 260.635 783.465C263.002 782.09 264.873 780.124 266.247 777.566C267.622 774.97 268.309 771.973 268.309 768.575C268.309 765.178 267.622 762.2 266.247 759.642C264.873 757.084 263.002 755.118 260.635 753.743C258.268 752.369 255.596 751.682 252.618 751.682C249.64 751.682 246.968 752.369 244.601 753.743C242.234 755.118 240.363 757.084 238.988 759.642C237.614 762.2 236.927 765.178 236.927 768.575C236.927 771.973 237.614 774.97 238.988 777.566C240.363 780.124 242.234 782.09 244.601 783.465C246.968 784.839 249.64 785.526 252.618 785.526Z" fill="black"/>
<path d="M318.88 749.105V788.619H314.871V757.065L300.784 788.619H297.863L283.776 757.179V788.619H279.767V749.105H284.005L299.295 783.35L314.585 749.105H318.88Z" fill="black"/>
<path d="M331.982 751.854V766.8H347.158V770.122H331.982V785.297H348.876V788.619H327.974V748.532H348.876V751.854H331.982Z" fill="black"/>
<path d="M354.942 768.575C354.942 764.643 355.801 761.131 357.519 758.038C359.237 754.908 361.585 752.484 364.563 750.766C367.541 749.009 370.862 748.131 374.527 748.131C378.994 748.131 382.812 749.2 385.981 751.338C389.188 753.438 391.516 756.416 392.967 760.272H388.271C387.126 757.561 385.37 755.442 383.003 753.915C380.674 752.388 377.849 751.625 374.527 751.625C371.588 751.625 368.934 752.312 366.567 753.686C364.238 755.061 362.406 757.046 361.07 759.642C359.734 762.2 359.065 765.178 359.065 768.575C359.065 771.973 359.734 774.951 361.07 777.509C362.406 780.067 364.238 782.033 366.567 783.407C368.934 784.782 371.588 785.469 374.527 785.469C377.849 785.469 380.674 784.725 383.003 783.236C385.37 781.709 387.126 779.609 388.271 776.936H392.967C391.516 780.754 389.188 783.713 385.981 785.813C382.774 787.912 378.956 788.962 374.527 788.962C370.862 788.962 367.541 788.103 364.563 786.385C361.585 784.629 359.237 782.205 357.519 779.112C355.801 776.02 354.942 772.508 354.942 768.575Z" fill="black"/>
<path d="M424.148 779.112H405.937L402.444 788.619H398.206L412.809 749.105H417.333L431.879 788.619H427.641L424.148 779.112ZM422.945 775.791L415.042 754.144L407.14 775.791H422.945Z" fill="black"/>
<path d="M459.615 788.619L449.708 771.897H442.321V788.619H438.312V748.589H450.338C454.805 748.589 458.184 749.658 460.474 751.796C462.803 753.934 463.968 756.74 463.968 760.215C463.968 763.116 463.128 765.598 461.448 767.659C459.806 769.683 457.363 771 454.118 771.611L464.426 788.619H459.615ZM442.321 768.633H450.396C453.526 768.633 455.874 767.869 457.439 766.342C459.043 764.815 459.844 762.772 459.844 760.215C459.844 757.58 459.081 755.557 457.554 754.144C456.027 752.694 453.622 751.968 450.338 751.968H442.321V768.633Z" fill="black"/>
<path d="M475.931 751.854V766.8H491.107V770.122H475.931V785.297H492.825V788.619H471.923V748.532H492.825V751.854H475.931Z" fill="black"/>
<path d="M528.579 789.02C525.945 789.02 523.616 788.561 521.592 787.645C519.607 786.729 518.042 785.45 516.897 783.808C515.751 782.167 515.14 780.334 515.064 778.311H519.302C519.493 780.258 520.352 781.976 521.879 783.465C523.406 784.915 525.639 785.641 528.579 785.641C531.29 785.641 533.428 784.954 534.993 783.579C536.596 782.167 537.398 780.391 537.398 778.253C537.398 776.536 536.959 775.161 536.081 774.13C535.203 773.061 534.115 772.279 532.817 771.782C531.519 771.248 529.724 770.675 527.434 770.064C524.761 769.339 522.642 768.633 521.077 767.946C519.512 767.258 518.176 766.189 517.068 764.739C515.961 763.288 515.408 761.322 515.408 758.84C515.408 756.779 515.942 754.946 517.011 753.343C518.08 751.701 519.588 750.422 521.535 749.506C523.482 748.589 525.716 748.131 528.235 748.131C531.939 748.131 534.916 749.048 537.169 750.88C539.46 752.674 540.777 755.003 541.12 757.867H536.768C536.501 756.225 535.604 754.774 534.077 753.514C532.549 752.216 530.488 751.567 527.892 751.567C525.487 751.567 523.482 752.216 521.879 753.514C520.275 754.774 519.474 756.511 519.474 758.726C519.474 760.405 519.913 761.761 520.791 762.792C521.669 763.822 522.757 764.605 524.055 765.139C525.391 765.674 527.186 766.247 529.438 766.857C532.034 767.583 534.134 768.308 535.737 769.034C537.341 769.721 538.696 770.79 539.803 772.241C540.91 773.691 541.464 775.638 541.464 778.082C541.464 779.952 540.968 781.728 539.975 783.407C538.982 785.087 537.513 786.443 535.565 787.473C533.618 788.504 531.29 789.02 528.579 789.02Z" fill="black"/>
<path d="M553.219 751.854V766.8H568.394V770.122H553.219V785.297H570.112V788.619H549.21V748.532H570.112V751.854H553.219Z" fill="black"/>
<path d="M599.314 788.619L589.407 771.897H582.02V788.619H578.011V748.589H590.037C594.504 748.589 597.883 749.658 600.173 751.796C602.502 753.934 603.666 756.74 603.666 760.215C603.666 763.116 602.827 765.598 601.147 767.659C599.505 769.683 597.062 771 593.817 771.611L604.125 788.619H599.314ZM582.02 768.633H590.094C593.225 768.633 595.573 767.869 597.138 766.342C598.742 764.815 599.543 762.772 599.543 760.215C599.543 757.58 598.78 755.557 597.253 754.144C595.726 752.694 593.32 751.968 590.037 751.968H582.02V768.633Z" fill="black"/>
<path d="M643.347 748.589L628.172 788.619H623.59L608.415 748.589H612.767L625.881 784.266L639.109 748.589H643.347Z" fill="black"/>
<path d="M653.379 748.589V788.619H649.37V748.589H653.379Z" fill="black"/>
<path d="M660.624 768.575C660.624 764.643 661.483 761.131 663.201 758.038C664.919 754.908 667.267 752.484 670.245 750.766C673.223 749.009 676.544 748.131 680.209 748.131C684.676 748.131 688.494 749.2 691.663 751.338C694.87 753.438 697.198 756.416 698.649 760.272H693.953C692.808 757.561 691.052 755.442 688.685 753.915C686.356 752.388 683.531 751.625 680.209 751.625C677.27 751.625 674.616 752.312 672.249 753.686C669.92 755.061 668.088 757.046 666.752 759.642C665.415 762.2 664.747 765.178 664.747 768.575C664.747 771.973 665.415 774.951 666.752 777.509C668.088 780.067 669.92 782.033 672.249 783.407C674.616 784.782 677.27 785.469 680.209 785.469C683.531 785.469 686.356 784.725 688.685 783.236C691.052 781.709 692.808 779.609 693.953 776.936H698.649C697.198 780.754 694.87 783.713 691.663 785.813C688.456 787.912 684.638 788.962 680.209 788.962C676.544 788.962 673.223 788.103 670.245 786.385C667.267 784.629 664.919 782.205 663.201 779.112C661.483 776.02 660.624 772.508 660.624 768.575Z" fill="black"/>
<path d="M710.646 751.854V766.8H725.821V770.122H710.646V785.297H727.539V788.619H706.637V748.532H727.539V751.854H710.646Z" fill="black"/>
<path d="M747.578 789.02C744.944 789.02 742.615 788.561 740.592 787.645C738.607 786.729 737.041 785.45 735.896 783.808C734.751 782.167 734.14 780.334 734.063 778.311H738.301C738.492 780.258 739.351 781.976 740.878 783.465C742.405 784.915 744.639 785.641 747.578 785.641C750.289 785.641 752.427 784.954 753.992 783.579C755.596 782.167 756.397 780.391 756.397 778.253C756.397 776.536 755.958 775.161 755.08 774.13C754.202 773.061 753.114 772.279 751.816 771.782C750.518 771.248 748.724 770.675 746.433 770.064C743.761 769.339 741.642 768.633 740.076 767.946C738.511 767.258 737.175 766.189 736.068 764.739C734.961 763.288 734.407 761.322 734.407 758.84C734.407 756.779 734.942 754.946 736.011 753.343C737.08 751.701 738.588 750.422 740.535 749.506C742.482 748.589 744.715 748.131 747.235 748.131C750.938 748.131 753.916 749.048 756.168 750.88C758.459 752.674 759.776 755.003 760.12 757.867H755.768C755.5 756.225 754.603 754.774 753.076 753.514C751.549 752.216 749.487 751.567 746.891 751.567C744.486 751.567 742.482 752.216 740.878 753.514C739.275 754.774 738.473 756.511 738.473 758.726C738.473 760.405 738.912 761.761 739.79 762.792C740.668 763.822 741.756 764.605 743.054 765.139C744.391 765.674 746.185 766.247 748.437 766.857C751.033 767.583 753.133 768.308 754.737 769.034C756.34 769.721 757.695 770.79 758.803 772.241C759.91 773.691 760.463 775.638 760.463 778.082C760.463 779.952 759.967 781.728 758.974 783.407C757.982 785.087 756.512 786.443 754.565 787.473C752.618 788.504 750.289 789.02 747.578 789.02Z" fill="black"/>
<path d="M787.933 748.589V788.619H783.924V748.589H787.933Z" fill="black"/>
<path d="M827.19 788.619H823.181L801.019 754.946V788.619H797.011V748.589H801.019L823.181 782.205V748.589H827.19V788.619Z" fill="black"/>
<path d="M834.437 768.575C834.437 764.643 835.296 761.131 837.014 758.038C838.732 754.908 841.08 752.484 844.058 750.766C847.035 749.009 850.357 748.131 854.022 748.131C858.489 748.131 862.306 749.2 865.475 751.338C868.682 753.438 871.011 756.416 872.462 760.272H867.766C866.621 757.561 864.864 755.442 862.497 753.915C860.169 752.388 857.343 751.625 854.022 751.625C851.082 751.625 848.429 752.312 846.062 753.686C843.733 755.061 841.901 757.046 840.564 759.642C839.228 762.2 838.56 765.178 838.56 768.575C838.56 771.973 839.228 774.951 840.564 777.509C841.901 780.067 843.733 782.033 846.062 783.407C848.429 784.782 851.082 785.469 854.022 785.469C857.343 785.469 860.169 784.725 862.497 783.236C864.864 781.709 866.621 779.609 867.766 776.936H872.462C871.011 780.754 868.682 783.713 865.475 785.813C862.268 787.912 858.451 788.962 854.022 788.962C850.357 788.962 847.035 788.103 844.058 786.385C841.08 784.629 838.732 782.205 837.014 779.112C835.296 776.02 834.437 772.508 834.437 768.575Z" fill="black"/>
<path d="M881.137 788.905C880.297 788.905 879.591 788.619 879.018 788.046C878.483 787.473 878.216 786.767 878.216 785.927C878.216 785.087 878.483 784.4 879.018 783.866C879.591 783.293 880.297 783.007 881.137 783.007C881.938 783.007 882.607 783.293 883.141 783.866C883.714 784.4 884 785.087 884 785.927C884 786.767 883.714 787.473 883.141 788.046C882.607 788.619 881.938 788.905 881.137 788.905Z" fill="black"/>
</svg>
