<svg width="91" height="46" viewBox="0 0 91 46" fill="none" xmlns="http://www.w3.org/2000/svg">
<path d="M2.12454 31.6091C4.69002 29.4724 6.73439 27.6963 8.25765 26.2808C9.78091 24.8386 11.0503 23.3429 12.0658 21.7938C13.0813 20.2448 13.589 18.7224 13.589 17.2268C13.589 15.8646 13.2684 14.7963 12.627 14.0218C11.9856 13.2472 10.9968 12.86 9.66065 12.86C8.32446 12.86 7.29559 13.314 6.57405 14.2221C5.85251 15.1035 5.47838 16.3187 5.45165 17.8677H0C0.106895 14.6628 1.05559 12.2323 2.84608 10.5764C4.6633 8.92052 6.96155 8.09257 9.74082 8.09257C12.7873 8.09257 15.1257 8.90717 16.7558 10.5364C18.386 12.1389 19.201 14.2622 19.201 16.9063C19.201 18.9895 18.6398 20.9793 17.5174 22.8755C16.395 24.7718 15.1123 26.4277 13.6692 27.8432C12.2261 29.2321 10.3421 30.9147 8.01714 32.8911H19.8424V37.5383H0.0400856V33.3718L2.12454 31.6091Z" fill="#3BE21C"/>
<path d="M23.9399 32.2501V27.8432L37.0479 9.09412H43.5819V27.3625H47.1094V32.2501H43.5819V37.9389H37.9699V32.2501H23.9399ZM38.3307 15.1035L30.1131 27.3625H38.3307V15.1035Z" fill="#3BE21C"/>
<path d="M67.1576 0L56.3345 45.1902H50.8427L61.6659 0H67.1576Z" fill="#3BE21C"/>
<path d="M90.3804 12.9802L79.7176 37.9389H74.0254L84.7684 13.6212H71.0591V8.81369H90.3804V12.9802Z" fill="#3BE21C"/>
</svg>
