<svg width="178" height="45" viewBox="0 0 178 45" fill="none" xmlns="http://www.w3.org/2000/svg">
<path d="M47.624 4.66C48.512 4.66 49.288 4.832 49.952 5.176C50.624 5.512 51.14 6 51.5 6.64C51.868 7.272 52.052 8.012 52.052 8.86C52.052 9.708 51.868 10.444 51.5 11.068C51.14 11.692 50.624 12.172 49.952 12.508C49.288 12.836 48.512 13 47.624 13H44.9V4.66H47.624ZM47.624 11.884C48.6 11.884 49.348 11.62 49.868 11.092C50.388 10.564 50.648 9.82 50.648 8.86C50.648 7.892 50.388 7.136 49.868 6.592C49.348 6.048 48.6 5.776 47.624 5.776H46.268V11.884H47.624ZM59.729 4.66C60.617 4.66 61.393 4.832 62.057 5.176C62.729 5.512 63.245 6 63.605 6.64C63.973 7.272 64.157 8.012 64.157 8.86C64.157 9.708 63.973 10.444 63.605 11.068C63.245 11.692 62.729 12.172 62.057 12.508C61.393 12.836 60.617 13 59.729 13H57.005V4.66H59.729ZM59.729 11.884C60.705 11.884 61.453 11.62 61.973 11.092C62.493 10.564 62.753 9.82 62.753 8.86C62.753 7.892 62.493 7.136 61.973 6.592C61.453 6.048 60.705 5.776 59.729 5.776H58.373V11.884H59.729ZM67.1208 7.348C67.3208 7.012 67.5848 6.752 67.9128 6.568C68.2488 6.376 68.6448 6.28 69.1008 6.28V7.696H68.7528C68.2168 7.696 67.8088 7.832 67.5288 8.104C67.2568 8.376 67.1208 8.848 67.1208 9.52V13H65.7528V6.388H67.1208V7.348ZM76.6583 9.532C76.6583 9.78 76.6423 10.004 76.6103 10.204H71.5583C71.5983 10.732 71.7943 11.156 72.1463 11.476C72.4983 11.796 72.9303 11.956 73.4423 11.956C74.1783 11.956 74.6983 11.648 75.0023 11.032H76.4783C76.2783 11.64 75.9143 12.14 75.3863 12.532C74.8663 12.916 74.2183 13.108 73.4423 13.108C72.8103 13.108 72.2423 12.968 71.7383 12.688C71.2423 12.4 70.8503 12 70.5623 11.488C70.2823 10.968 70.1423 10.368 70.1423 9.688C70.1423 9.008 70.2783 8.412 70.5503 7.9C70.8303 7.38 71.2183 6.98 71.7143 6.7C72.2183 6.42 72.7943 6.28 73.4423 6.28C74.0663 6.28 74.6223 6.416 75.1103 6.688C75.5983 6.96 75.9783 7.344 76.2503 7.84C76.5223 8.328 76.6583 8.892 76.6583 9.532ZM75.2303 9.1C75.2223 8.596 75.0423 8.192 74.6903 7.888C74.3383 7.584 73.9023 7.432 73.3823 7.432C72.9103 7.432 72.5063 7.584 72.1703 7.888C71.8343 8.184 71.6343 8.588 71.5703 9.1H75.2303ZM77.7885 9.664C77.7885 9 77.9245 8.412 78.1965 7.9C78.4765 7.388 78.8525 6.992 79.3245 6.712C79.8045 6.424 80.3325 6.28 80.9085 6.28C81.4285 6.28 81.8805 6.384 82.2645 6.592C82.6565 6.792 82.9685 7.044 83.2005 7.348V6.388H84.5805V13H83.2005V12.016C82.9685 12.328 82.6525 12.588 82.2525 12.796C81.8525 13.004 81.3965 13.108 80.8845 13.108C80.3165 13.108 79.7965 12.964 79.3245 12.676C78.8525 12.38 78.4765 11.972 78.1965 11.452C77.9245 10.924 77.7885 10.328 77.7885 9.664ZM83.2005 9.688C83.2005 9.232 83.1045 8.836 82.9125 8.5C82.7285 8.164 82.4845 7.908 82.1805 7.732C81.8765 7.556 81.5485 7.468 81.1965 7.468C80.8445 7.468 80.5165 7.556 80.2125 7.732C79.9085 7.9 79.6605 8.152 79.4685 8.488C79.2845 8.816 79.1925 9.208 79.1925 9.664C79.1925 10.12 79.2845 10.52 79.4685 10.864C79.6605 11.208 79.9085 11.472 80.2125 11.656C80.5245 11.832 80.8525 11.92 81.1965 11.92C81.5485 11.92 81.8765 11.832 82.1805 11.656C82.4845 11.48 82.7285 11.224 82.9125 10.888C83.1045 10.544 83.2005 10.144 83.2005 9.688ZM94.6213 6.28C95.1413 6.28 95.6053 6.388 96.0133 6.604C96.4293 6.82 96.7533 7.14 96.9853 7.564C97.2253 7.988 97.3453 8.5 97.3453 9.1V13H95.9893V9.304C95.9893 8.712 95.8413 8.26 95.5453 7.948C95.2493 7.628 94.8453 7.468 94.3333 7.468C93.8213 7.468 93.4133 7.628 93.1093 7.948C92.8133 8.26 92.6653 8.712 92.6653 9.304V13H91.3093V9.304C91.3093 8.712 91.1613 8.26 90.8653 7.948C90.5693 7.628 90.1653 7.468 89.6533 7.468C89.1413 7.468 88.7333 7.628 88.4293 7.948C88.1333 8.26 87.9853 8.712 87.9853 9.304V13H86.6173V6.388H87.9853V7.144C88.2093 6.872 88.4933 6.66 88.8373 6.508C89.1813 6.356 89.5493 6.28 89.9413 6.28C90.4693 6.28 90.9413 6.392 91.3573 6.616C91.7733 6.84 92.0933 7.164 92.3173 7.588C92.5173 7.188 92.8293 6.872 93.2533 6.64C93.6773 6.4 94.1333 6.28 94.6213 6.28ZM101.726 13.108C101.206 13.108 100.738 13.016 100.322 12.832C99.9141 12.64 99.5901 12.384 99.3501 12.064C99.1101 11.736 98.9821 11.372 98.9661 10.972H100.382C100.406 11.252 100.538 11.488 100.778 11.68C101.026 11.864 101.334 11.956 101.702 11.956C102.086 11.956 102.382 11.884 102.59 11.74C102.806 11.588 102.914 11.396 102.914 11.164C102.914 10.916 102.794 10.732 102.554 10.612C102.322 10.492 101.95 10.36 101.438 10.216C100.942 10.08 100.538 9.948 100.226 9.82C99.9141 9.692 99.6421 9.496 99.4101 9.232C99.1861 8.968 99.0741 8.62 99.0741 8.188C99.0741 7.836 99.1781 7.516 99.3861 7.228C99.5941 6.932 99.8901 6.7 100.274 6.532C100.666 6.364 101.114 6.28 101.618 6.28C102.37 6.28 102.974 6.472 103.43 6.856C103.894 7.232 104.142 7.748 104.174 8.404H102.806C102.782 8.108 102.662 7.872 102.446 7.696C102.23 7.52 101.938 7.432 101.57 7.432C101.21 7.432 100.934 7.5 100.742 7.636C100.55 7.772 100.454 7.952 100.454 8.176C100.454 8.352 100.518 8.5 100.646 8.62C100.774 8.74 100.93 8.836 101.114 8.908C101.298 8.972 101.57 9.056 101.93 9.16C102.41 9.288 102.802 9.42 103.106 9.556C103.418 9.684 103.686 9.876 103.91 10.132C104.134 10.388 104.25 10.728 104.258 11.152C104.258 11.528 104.154 11.864 103.946 12.16C103.738 12.456 103.442 12.688 103.058 12.856C102.682 13.024 102.238 13.108 101.726 13.108Z" fill="#111111"/>
<path d="M50.14 22.03V29H49.23V25.84H45.68V29H44.77V22.03H45.68V25.09H49.23V22.03H50.14ZM54.2838 29.09C53.7705 29.09 53.3038 28.9733 52.8838 28.74C52.4705 28.5067 52.1438 28.1767 51.9038 27.75C51.6705 27.3167 51.5538 26.8167 51.5538 26.25C51.5538 25.69 51.6738 25.1967 51.9138 24.77C52.1605 24.3367 52.4938 24.0067 52.9138 23.78C53.3338 23.5467 53.8038 23.43 54.3238 23.43C54.8438 23.43 55.3138 23.5467 55.7338 23.78C56.1538 24.0067 56.4838 24.3333 56.7238 24.76C56.9705 25.1867 57.0938 25.6833 57.0938 26.25C57.0938 26.8167 56.9672 27.3167 56.7138 27.75C56.4672 28.1767 56.1305 28.5067 55.7038 28.74C55.2772 28.9733 54.8038 29.09 54.2838 29.09ZM54.2838 28.29C54.6105 28.29 54.9172 28.2133 55.2038 28.06C55.4905 27.9067 55.7205 27.6767 55.8938 27.37C56.0738 27.0633 56.1638 26.69 56.1638 26.25C56.1638 25.81 56.0772 25.4367 55.9038 25.13C55.7305 24.8233 55.5038 24.5967 55.2238 24.45C54.9438 24.2967 54.6405 24.22 54.3138 24.22C53.9805 24.22 53.6738 24.2967 53.3938 24.45C53.1205 24.5967 52.9005 24.8233 52.7338 25.13C52.5672 25.4367 52.4838 25.81 52.4838 26.25C52.4838 26.6967 52.5638 27.0733 52.7238 27.38C52.8905 27.6867 53.1105 27.9167 53.3838 28.07C53.6572 28.2167 53.9572 28.29 54.2838 28.29ZM65.0803 23.42C65.507 23.42 65.887 23.51 66.2203 23.69C66.5536 23.8633 66.817 24.1267 67.0103 24.48C67.2036 24.8333 67.3003 25.2633 67.3003 25.77V29H66.4003V25.9C66.4003 25.3533 66.2636 24.9367 65.9903 24.65C65.7236 24.3567 65.3603 24.21 64.9003 24.21C64.427 24.21 64.0503 24.3633 63.7703 24.67C63.4903 24.97 63.3503 25.4067 63.3503 25.98V29H62.4503V25.9C62.4503 25.3533 62.3136 24.9367 62.0403 24.65C61.7736 24.3567 61.4103 24.21 60.9503 24.21C60.477 24.21 60.1003 24.3633 59.8203 24.67C59.5403 24.97 59.4003 25.4067 59.4003 25.98V29H58.4903V23.52H59.4003V24.31C59.5803 24.0233 59.8203 23.8033 60.1203 23.65C60.427 23.4967 60.7636 23.42 61.1303 23.42C61.5903 23.42 61.997 23.5233 62.3503 23.73C62.7036 23.9367 62.967 24.24 63.1403 24.64C63.2936 24.2533 63.547 23.9533 63.9003 23.74C64.2536 23.5267 64.647 23.42 65.0803 23.42ZM73.993 26.05C73.993 26.2233 73.983 26.4067 73.963 26.6H69.583C69.6164 27.14 69.7997 27.5633 70.133 27.87C70.473 28.17 70.883 28.32 71.363 28.32C71.7564 28.32 72.083 28.23 72.343 28.05C72.6097 27.8633 72.7964 27.6167 72.903 27.31H73.883C73.7364 27.8367 73.443 28.2667 73.003 28.6C72.563 28.9267 72.0164 29.09 71.363 29.09C70.843 29.09 70.3764 28.9733 69.963 28.74C69.5564 28.5067 69.2364 28.1767 69.003 27.75C68.7697 27.3167 68.653 26.8167 68.653 26.25C68.653 25.6833 68.7664 25.1867 68.993 24.76C69.2197 24.3333 69.5364 24.0067 69.943 23.78C70.3564 23.5467 70.8297 23.43 71.363 23.43C71.883 23.43 72.343 23.5433 72.743 23.77C73.143 23.9967 73.4497 24.31 73.663 24.71C73.883 25.1033 73.993 25.55 73.993 26.05ZM73.053 25.86C73.053 25.5133 72.9764 25.2167 72.823 24.97C72.6697 24.7167 72.4597 24.5267 72.193 24.4C71.933 24.2667 71.643 24.2 71.323 24.2C70.863 24.2 70.4697 24.3467 70.143 24.64C69.823 24.9333 69.6397 25.34 69.593 25.86H73.053ZM77.9202 25.51C77.9202 24.83 78.0736 24.22 78.3802 23.68C78.6869 23.1333 79.1036 22.7067 79.6302 22.4C80.1636 22.0933 80.7536 21.94 81.4002 21.94C82.1602 21.94 82.8236 22.1233 83.3902 22.49C83.9569 22.8567 84.3702 23.3767 84.6302 24.05H83.5402C83.3469 23.63 83.0669 23.3067 82.7002 23.08C82.3402 22.8533 81.9069 22.74 81.4002 22.74C80.9136 22.74 80.4769 22.8533 80.0902 23.08C79.7036 23.3067 79.4002 23.63 79.1802 24.05C78.9602 24.4633 78.8502 24.95 78.8502 25.51C78.8502 26.0633 78.9602 26.55 79.1802 26.97C79.4002 27.3833 79.7036 27.7033 80.0902 27.93C80.4769 28.1567 80.9136 28.27 81.4002 28.27C81.9069 28.27 82.3402 28.16 82.7002 27.94C83.0669 27.7133 83.3469 27.39 83.5402 26.97H84.6302C84.3702 27.6367 83.9569 28.1533 83.3902 28.52C82.8236 28.88 82.1602 29.06 81.4002 29.06C80.7536 29.06 80.1636 28.91 79.6302 28.61C79.1036 28.3033 78.6869 27.88 78.3802 27.34C78.0736 26.8 77.9202 26.19 77.9202 25.51ZM85.8448 26.24C85.8448 25.68 85.9582 25.19 86.1848 24.77C86.4115 24.3433 86.7215 24.0133 87.1148 23.78C87.5148 23.5467 87.9582 23.43 88.4448 23.43C88.9248 23.43 89.3415 23.5333 89.6948 23.74C90.0482 23.9467 90.3115 24.2067 90.4848 24.52V23.52H91.4048V29H90.4848V27.98C90.3048 28.3 90.0348 28.5667 89.6748 28.78C89.3215 28.9867 88.9082 29.09 88.4348 29.09C87.9482 29.09 87.5082 28.97 87.1148 28.73C86.7215 28.49 86.4115 28.1533 86.1848 27.72C85.9582 27.2867 85.8448 26.7933 85.8448 26.24ZM90.4848 26.25C90.4848 25.8367 90.4015 25.4767 90.2348 25.17C90.0682 24.8633 89.8415 24.63 89.5548 24.47C89.2748 24.3033 88.9648 24.22 88.6248 24.22C88.2848 24.22 87.9748 24.3 87.6948 24.46C87.4148 24.62 87.1915 24.8533 87.0248 25.16C86.8582 25.4667 86.7748 25.8267 86.7748 26.24C86.7748 26.66 86.8582 27.0267 87.0248 27.34C87.1915 27.6467 87.4148 27.8833 87.6948 28.05C87.9748 28.21 88.2848 28.29 88.6248 28.29C88.9648 28.29 89.2748 28.21 89.5548 28.05C89.8415 27.8833 90.0682 27.6467 90.2348 27.34C90.4015 27.0267 90.4848 26.6633 90.4848 26.25ZM94.0527 24.41C94.2127 24.0967 94.4393 23.8533 94.7327 23.68C95.0327 23.5067 95.396 23.42 95.8227 23.42V24.36H95.5827C94.5627 24.36 94.0527 24.9133 94.0527 26.02V29H93.1427V23.52H94.0527V24.41ZM102.073 26.05C102.073 26.2233 102.063 26.4067 102.043 26.6H97.6631C97.6965 27.14 97.8798 27.5633 98.2131 27.87C98.5531 28.17 98.9631 28.32 99.4431 28.32C99.8365 28.32 100.163 28.23 100.423 28.05C100.69 27.8633 100.876 27.6167 100.983 27.31H101.963C101.816 27.8367 101.523 28.2667 101.083 28.6C100.643 28.9267 100.096 29.09 99.4431 29.09C98.9231 29.09 98.4565 28.9733 98.0431 28.74C97.6365 28.5067 97.3165 28.1767 97.0831 27.75C96.8498 27.3167 96.7331 26.8167 96.7331 26.25C96.7331 25.6833 96.8465 25.1867 97.0731 24.76C97.2998 24.3333 97.6165 24.0067 98.0231 23.78C98.4365 23.5467 98.9098 23.43 99.4431 23.43C99.9631 23.43 100.423 23.5433 100.823 23.77C101.223 23.9967 101.53 24.31 101.743 24.71C101.963 25.1033 102.073 25.55 102.073 26.05ZM101.133 25.86C101.133 25.5133 101.056 25.2167 100.903 24.97C100.75 24.7167 100.54 24.5267 100.273 24.4C100.013 24.2667 99.7231 24.2 99.4031 24.2C98.9431 24.2 98.5498 24.3467 98.2231 24.64C97.9031 24.9333 97.7198 25.34 97.6731 25.86H101.133ZM108.55 29.07C108.09 29.07 107.677 28.99 107.31 28.83C106.95 28.6633 106.667 28.4367 106.46 28.15C106.254 27.8567 106.147 27.52 106.14 27.14H107.11C107.144 27.4667 107.277 27.7433 107.51 27.97C107.75 28.19 108.097 28.3 108.55 28.3C108.984 28.3 109.324 28.1933 109.57 27.98C109.824 27.76 109.95 27.48 109.95 27.14C109.95 26.8733 109.877 26.6567 109.73 26.49C109.584 26.3233 109.4 26.1967 109.18 26.11C108.96 26.0233 108.664 25.93 108.29 25.83C107.83 25.71 107.46 25.59 107.18 25.47C106.907 25.35 106.67 25.1633 106.47 24.91C106.277 24.65 106.18 24.3033 106.18 23.87C106.18 23.49 106.277 23.1533 106.47 22.86C106.664 22.5667 106.934 22.34 107.28 22.18C107.634 22.02 108.037 21.94 108.49 21.94C109.144 21.94 109.677 22.1033 110.09 22.43C110.51 22.7567 110.747 23.19 110.8 23.73H109.8C109.767 23.4633 109.627 23.23 109.38 23.03C109.134 22.8233 108.807 22.72 108.4 22.72C108.02 22.72 107.71 22.82 107.47 23.02C107.23 23.2133 107.11 23.4867 107.11 23.84C107.11 24.0933 107.18 24.3 107.32 24.46C107.467 24.62 107.644 24.7433 107.85 24.83C108.064 24.91 108.36 25.0033 108.74 25.11C109.2 25.2367 109.57 25.3633 109.85 25.49C110.13 25.61 110.37 25.8 110.57 26.06C110.77 26.3133 110.87 26.66 110.87 27.1C110.87 27.44 110.78 27.76 110.6 28.06C110.42 28.36 110.154 28.6033 109.8 28.79C109.447 28.9767 109.03 29.07 108.55 29.07ZM117.409 26.05C117.409 26.2233 117.399 26.4067 117.379 26.6H112.999C113.033 27.14 113.216 27.5633 113.549 27.87C113.889 28.17 114.299 28.32 114.779 28.32C115.173 28.32 115.499 28.23 115.759 28.05C116.026 27.8633 116.213 27.6167 116.319 27.31H117.299C117.153 27.8367 116.859 28.2667 116.419 28.6C115.979 28.9267 115.433 29.09 114.779 29.09C114.259 29.09 113.793 28.9733 113.379 28.74C112.973 28.5067 112.653 28.1767 112.419 27.75C112.186 27.3167 112.069 26.8167 112.069 26.25C112.069 25.6833 112.183 25.1867 112.409 24.76C112.636 24.3333 112.953 24.0067 113.359 23.78C113.773 23.5467 114.246 23.43 114.779 23.43C115.299 23.43 115.759 23.5433 116.159 23.77C116.559 23.9967 116.866 24.31 117.079 24.71C117.299 25.1033 117.409 25.55 117.409 26.05ZM116.469 25.86C116.469 25.5133 116.393 25.2167 116.239 24.97C116.086 24.7167 115.876 24.5267 115.609 24.4C115.349 24.2667 115.059 24.2 114.739 24.2C114.279 24.2 113.886 24.3467 113.559 24.64C113.239 24.9333 113.056 25.34 113.009 25.86H116.469ZM119.721 24.41C119.881 24.0967 120.107 23.8533 120.401 23.68C120.701 23.5067 121.064 23.42 121.491 23.42V24.36H121.251C120.231 24.36 119.721 24.9133 119.721 26.02V29H118.811V23.52H119.721V24.41ZM124.781 28.16L126.481 23.52H127.451L125.301 29H124.241L122.091 23.52H123.071L124.781 28.16ZM129.017 22.63C128.843 22.63 128.697 22.57 128.577 22.45C128.457 22.33 128.397 22.1833 128.397 22.01C128.397 21.8367 128.457 21.69 128.577 21.57C128.697 21.45 128.843 21.39 129.017 21.39C129.183 21.39 129.323 21.45 129.437 21.57C129.557 21.69 129.617 21.8367 129.617 22.01C129.617 22.1833 129.557 22.33 129.437 22.45C129.323 22.57 129.183 22.63 129.017 22.63ZM129.457 23.52V29H128.547V23.52H129.457ZM130.868 26.25C130.868 25.6833 130.981 25.19 131.208 24.77C131.434 24.3433 131.748 24.0133 132.148 23.78C132.554 23.5467 133.018 23.43 133.538 23.43C134.211 23.43 134.764 23.5933 135.198 23.92C135.638 24.2467 135.928 24.7 136.068 25.28H135.088C134.994 24.9467 134.811 24.6833 134.538 24.49C134.271 24.2967 133.938 24.2 133.538 24.2C133.018 24.2 132.598 24.38 132.278 24.74C131.958 25.0933 131.798 25.5967 131.798 26.25C131.798 26.91 131.958 27.42 132.278 27.78C132.598 28.14 133.018 28.32 133.538 28.32C133.938 28.32 134.271 28.2267 134.538 28.04C134.804 27.8533 134.988 27.5867 135.088 27.24H136.068C135.921 27.8 135.628 28.25 135.188 28.59C134.748 28.9233 134.198 29.09 133.538 29.09C133.018 29.09 132.554 28.9733 132.148 28.74C131.748 28.5067 131.434 28.1767 131.208 27.75C130.981 27.3233 130.868 26.8233 130.868 26.25ZM142.482 26.05C142.482 26.2233 142.472 26.4067 142.452 26.6H138.072C138.105 27.14 138.288 27.5633 138.622 27.87C138.962 28.17 139.372 28.32 139.852 28.32C140.245 28.32 140.572 28.23 140.832 28.05C141.098 27.8633 141.285 27.6167 141.392 27.31H142.372C142.225 27.8367 141.932 28.2667 141.492 28.6C141.052 28.9267 140.505 29.09 139.852 29.09C139.332 29.09 138.865 28.9733 138.452 28.74C138.045 28.5067 137.725 28.1767 137.492 27.75C137.258 27.3167 137.142 26.8167 137.142 26.25C137.142 25.6833 137.255 25.1867 137.482 24.76C137.708 24.3333 138.025 24.0067 138.432 23.78C138.845 23.5467 139.318 23.43 139.852 23.43C140.372 23.43 140.832 23.5433 141.232 23.77C141.632 23.9967 141.938 24.31 142.152 24.71C142.372 25.1033 142.482 25.55 142.482 26.05ZM141.542 25.86C141.542 25.5133 141.465 25.2167 141.312 24.97C141.158 24.7167 140.948 24.5267 140.682 24.4C140.422 24.2667 140.132 24.2 139.812 24.2C139.352 24.2 138.958 24.3467 138.632 24.64C138.312 24.9333 138.128 25.34 138.082 25.86H141.542ZM145.823 29.09C145.403 29.09 145.026 29.02 144.693 28.88C144.36 28.7333 144.096 28.5333 143.903 28.28C143.71 28.02 143.603 27.7233 143.583 27.39H144.523C144.55 27.6633 144.676 27.8867 144.903 28.06C145.136 28.2333 145.44 28.32 145.813 28.32C146.16 28.32 146.433 28.2433 146.633 28.09C146.833 27.9367 146.933 27.7433 146.933 27.51C146.933 27.27 146.826 27.0933 146.613 26.98C146.4 26.86 146.07 26.7433 145.623 26.63C145.216 26.5233 144.883 26.4167 144.623 26.31C144.37 26.1967 144.15 26.0333 143.963 25.82C143.783 25.6 143.693 25.3133 143.693 24.96C143.693 24.68 143.776 24.4233 143.943 24.19C144.11 23.9567 144.346 23.7733 144.653 23.64C144.96 23.5 145.31 23.43 145.703 23.43C146.31 23.43 146.8 23.5833 147.173 23.89C147.546 24.1967 147.746 24.6167 147.773 25.15H146.863C146.843 24.8633 146.726 24.6333 146.513 24.46C146.306 24.2867 146.026 24.2 145.673 24.2C145.346 24.2 145.086 24.27 144.893 24.41C144.7 24.55 144.603 24.7333 144.603 24.96C144.603 25.14 144.66 25.29 144.773 25.41C144.893 25.5233 145.04 25.6167 145.213 25.69C145.393 25.7567 145.64 25.8333 145.953 25.92C146.346 26.0267 146.666 26.1333 146.913 26.24C147.16 26.34 147.37 26.4933 147.543 26.7C147.723 26.9067 147.816 27.1767 147.823 27.51C147.823 27.81 147.74 28.08 147.573 28.32C147.406 28.56 147.17 28.75 146.863 28.89C146.563 29.0233 146.216 29.09 145.823 29.09Z" fill="#111111"/>
<path d="M38.848 42.048C38.7093 42.048 38.592 42 38.496 41.904C38.4 41.808 38.352 41.6907 38.352 41.552C38.352 41.4133 38.4 41.296 38.496 41.2C38.592 41.104 38.7093 41.056 38.848 41.056C38.9813 41.056 39.0933 41.104 39.184 41.2C39.28 41.296 39.328 41.4133 39.328 41.552C39.328 41.6907 39.28 41.808 39.184 41.904C39.0933 42 38.9813 42.048 38.848 42.048ZM40.6877 42.048C40.549 42.048 40.4317 42 40.3357 41.904C40.2397 41.808 40.1917 41.6907 40.1917 41.552C40.1917 41.4133 40.2397 41.296 40.3357 41.2C40.4317 41.104 40.549 41.056 40.6877 41.056C40.821 41.056 40.933 41.104 41.0237 41.2C41.1197 41.296 41.1677 41.4133 41.1677 41.552C41.1677 41.6907 41.1197 41.808 41.0237 41.904C40.933 42 40.821 42.048 40.6877 42.048ZM48.1354 37.616L46.7674 42H46.0154L44.9594 38.52L43.9034 42H43.1514L41.7754 37.616H42.5194L43.5274 41.296L44.6154 37.616H45.3594L46.4234 41.304L47.4154 37.616H48.1354ZM51.1939 37.536C51.5245 37.536 51.8232 37.608 52.0899 37.752C52.3565 37.8907 52.5645 38.1013 52.7139 38.384C52.8685 38.6667 52.9459 39.0107 52.9459 39.416V42H52.2259V39.52C52.2259 39.0827 52.1165 38.7493 51.8979 38.52C51.6792 38.2853 51.3805 38.168 51.0019 38.168C50.6179 38.168 50.3112 38.288 50.0819 38.528C49.8579 38.768 49.7459 39.1173 49.7459 39.576V42H49.0179V36.08H49.7459V38.24C49.8899 38.016 50.0872 37.8427 50.3379 37.72C50.5939 37.5973 50.8792 37.536 51.1939 37.536ZM58.2951 39.64C58.2951 39.7787 58.2871 39.9253 58.2711 40.08H54.7671C54.7937 40.512 54.9404 40.8507 55.2071 41.096C55.4791 41.336 55.8071 41.456 56.1911 41.456C56.5057 41.456 56.7671 41.384 56.9751 41.24C57.1884 41.0907 57.3377 40.8933 57.4231 40.648H58.2071C58.0897 41.0693 57.8551 41.4133 57.5031 41.68C57.1511 41.9413 56.7137 42.072 56.1911 42.072C55.7751 42.072 55.4017 41.9787 55.0711 41.792C54.7457 41.6053 54.4897 41.3413 54.3031 41C54.1164 40.6533 54.0231 40.2533 54.0231 39.8C54.0231 39.3467 54.1137 38.9493 54.2951 38.608C54.4764 38.2667 54.7297 38.0053 55.0551 37.824C55.3857 37.6373 55.7644 37.544 56.1911 37.544C56.6071 37.544 56.9751 37.6347 57.2951 37.816C57.6151 37.9973 57.8604 38.248 58.0311 38.568C58.2071 38.8827 58.2951 39.24 58.2951 39.64ZM57.5431 39.488C57.5431 39.2107 57.4817 38.9733 57.3591 38.776C57.2364 38.5733 57.0684 38.4213 56.8551 38.32C56.6471 38.2133 56.4151 38.16 56.1591 38.16C55.7911 38.16 55.4764 38.2773 55.2151 38.512C54.9591 38.7467 54.8124 39.072 54.7751 39.488H57.5431ZM60.144 38.328C60.272 38.0773 60.4533 37.8827 60.688 37.744C60.928 37.6053 61.2187 37.536 61.56 37.536V38.288H61.368C60.552 38.288 60.144 38.7307 60.144 39.616V42H59.416V37.616H60.144V38.328ZM66.5604 39.64C66.5604 39.7787 66.5524 39.9253 66.5364 40.08H63.0324C63.059 40.512 63.2057 40.8507 63.4724 41.096C63.7444 41.336 64.0724 41.456 64.4564 41.456C64.771 41.456 65.0324 41.384 65.2404 41.24C65.4537 41.0907 65.603 40.8933 65.6884 40.648H66.4724C66.355 41.0693 66.1204 41.4133 65.7684 41.68C65.4164 41.9413 64.979 42.072 64.4564 42.072C64.0404 42.072 63.667 41.9787 63.3364 41.792C63.011 41.6053 62.755 41.3413 62.5684 41C62.3817 40.6533 62.2884 40.2533 62.2884 39.8C62.2884 39.3467 62.379 38.9493 62.5604 38.608C62.7417 38.2667 62.995 38.0053 63.3204 37.824C63.651 37.6373 64.0297 37.544 64.4564 37.544C64.8724 37.544 65.2404 37.6347 65.5604 37.816C65.8804 37.9973 66.1257 38.248 66.2964 38.568C66.4724 38.8827 66.5604 39.24 66.5604 39.64ZM65.8084 39.488C65.8084 39.2107 65.747 38.9733 65.6244 38.776C65.5017 38.5733 65.3337 38.4213 65.1204 38.32C64.9124 38.2133 64.6804 38.16 64.4244 38.16C64.0564 38.16 63.7417 38.2773 63.4804 38.512C63.2244 38.7467 63.0777 39.072 63.0404 39.488H65.8084ZM73.7501 37.616L71.1101 44.064H70.3581L71.2221 41.952L69.4541 37.616H70.2621L71.6381 41.168L72.9981 37.616H73.7501ZM76.5539 42.072C76.1433 42.072 75.7699 41.9787 75.4339 41.792C75.1033 41.6053 74.8419 41.3413 74.6499 41C74.4633 40.6533 74.3699 40.2533 74.3699 39.8C74.3699 39.352 74.4659 38.9573 74.6579 38.616C74.8553 38.2693 75.1219 38.0053 75.4579 37.824C75.7939 37.6373 76.1699 37.544 76.5859 37.544C77.0019 37.544 77.3779 37.6373 77.7139 37.824C78.0499 38.0053 78.3139 38.2667 78.5059 38.608C78.7033 38.9493 78.8019 39.3467 78.8019 39.8C78.8019 40.2533 78.7006 40.6533 78.4979 41C78.3006 41.3413 78.0313 41.6053 77.6899 41.792C77.3486 41.9787 76.9699 42.072 76.5539 42.072ZM76.5539 41.432C76.8153 41.432 77.0606 41.3707 77.2899 41.248C77.5193 41.1253 77.7033 40.9413 77.8419 40.696C77.9859 40.4507 78.0579 40.152 78.0579 39.8C78.0579 39.448 77.9886 39.1493 77.8499 38.904C77.7113 38.6587 77.5299 38.4773 77.3059 38.36C77.0819 38.2373 76.8393 38.176 76.5779 38.176C76.3113 38.176 76.0659 38.2373 75.8419 38.36C75.6233 38.4773 75.4473 38.6587 75.3139 38.904C75.1806 39.1493 75.1139 39.448 75.1139 39.8C75.1139 40.1573 75.1779 40.4587 75.3059 40.704C75.4393 40.9493 75.6153 41.1333 75.8339 41.256C76.0526 41.3733 76.2926 41.432 76.5539 41.432ZM83.8071 37.616V42H83.0791V41.352C82.9405 41.576 82.7458 41.752 82.4951 41.88C82.2498 42.0027 81.9778 42.064 81.6791 42.064C81.3378 42.064 81.0311 41.9947 80.7591 41.856C80.4871 41.712 80.2711 41.4987 80.1111 41.216C79.9565 40.9333 79.8791 40.5893 79.8791 40.184V37.616H80.5991V40.088C80.5991 40.52 80.7085 40.8533 80.9271 41.088C81.1458 41.3173 81.4445 41.432 81.8231 41.432C82.2125 41.432 82.5191 41.312 82.7431 41.072C82.9671 40.832 83.0791 40.4827 83.0791 40.024V37.616H83.8071ZM85.9243 38.328C86.0523 38.0773 86.2336 37.8827 86.4683 37.744C86.7083 37.6053 86.999 37.536 87.3403 37.536V38.288H87.1483C86.3323 38.288 85.9243 38.7307 85.9243 39.616V42H85.1963V37.616H85.9243V38.328ZM96.4735 37.616L95.1055 42H94.3535L93.2975 38.52L92.2415 42H91.4895L90.1135 37.616H90.8575L91.8655 41.296L92.9535 37.616H93.6975L94.7615 41.304L95.7535 37.616H96.4735ZM101.356 39.64C101.356 39.7787 101.348 39.9253 101.332 40.08H97.828C97.8547 40.512 98.0013 40.8507 98.268 41.096C98.54 41.336 98.868 41.456 99.252 41.456C99.5667 41.456 99.828 41.384 100.036 41.24C100.249 41.0907 100.399 40.8933 100.484 40.648H101.268C101.151 41.0693 100.916 41.4133 100.564 41.68C100.212 41.9413 99.7747 42.072 99.252 42.072C98.836 42.072 98.4627 41.9787 98.132 41.792C97.8067 41.6053 97.5507 41.3413 97.364 41C97.1773 40.6533 97.084 40.2533 97.084 39.8C97.084 39.3467 97.1747 38.9493 97.356 38.608C97.5373 38.2667 97.7907 38.0053 98.116 37.824C98.4467 37.6373 98.8253 37.544 99.252 37.544C99.668 37.544 100.036 37.6347 100.356 37.816C100.676 37.9973 100.921 38.248 101.092 38.568C101.268 38.8827 101.356 39.24 101.356 39.64ZM100.604 39.488C100.604 39.2107 100.543 38.9733 100.42 38.776C100.297 38.5733 100.129 38.4213 99.916 38.32C99.708 38.2133 99.476 38.16 99.22 38.16C98.852 38.16 98.5373 38.2773 98.276 38.512C98.02 38.7467 97.8733 39.072 97.836 39.488H100.604ZM103.205 36.08V42H102.477V36.08H103.205ZM105.334 36.08V42H104.606V36.08H105.334ZM107.462 38.432C107.612 38.1707 107.83 37.9573 108.118 37.792C108.406 37.6267 108.734 37.544 109.102 37.544C109.497 37.544 109.852 37.6373 110.166 37.824C110.481 38.0107 110.729 38.2747 110.91 38.616C111.092 38.952 111.182 39.344 111.182 39.792C111.182 40.2347 111.092 40.6293 110.91 40.976C110.729 41.3227 110.478 41.592 110.158 41.784C109.844 41.976 109.492 42.072 109.102 42.072C108.724 42.072 108.39 41.9893 108.102 41.824C107.82 41.6587 107.606 41.448 107.462 41.192V42H106.734V36.08H107.462V38.432ZM110.438 39.792C110.438 39.4613 110.372 39.1733 110.238 38.928C110.105 38.6827 109.924 38.496 109.694 38.368C109.47 38.24 109.222 38.176 108.95 38.176C108.684 38.176 108.436 38.2427 108.206 38.376C107.982 38.504 107.801 38.6933 107.662 38.944C107.529 39.1893 107.462 39.4747 107.462 39.8C107.462 40.1307 107.529 40.4213 107.662 40.672C107.801 40.9173 107.982 41.1067 108.206 41.24C108.436 41.368 108.684 41.432 108.95 41.432C109.222 41.432 109.47 41.368 109.694 41.24C109.924 41.1067 110.105 40.9173 110.238 40.672C110.372 40.4213 110.438 40.128 110.438 39.792ZM116.301 39.64C116.301 39.7787 116.293 39.9253 116.277 40.08H112.773C112.799 40.512 112.946 40.8507 113.213 41.096C113.485 41.336 113.813 41.456 114.197 41.456C114.511 41.456 114.773 41.384 114.981 41.24C115.194 41.0907 115.343 40.8933 115.429 40.648H116.213C116.095 41.0693 115.861 41.4133 115.509 41.68C115.157 41.9413 114.719 42.072 114.197 42.072C113.781 42.072 113.407 41.9787 113.077 41.792C112.751 41.6053 112.495 41.3413 112.309 41C112.122 40.6533 112.029 40.2533 112.029 39.8C112.029 39.3467 112.119 38.9493 112.301 38.608C112.482 38.2667 112.735 38.0053 113.061 37.824C113.391 37.6373 113.77 37.544 114.197 37.544C114.613 37.544 114.981 37.6347 115.301 37.816C115.621 37.9973 115.866 38.248 116.037 38.568C116.213 38.8827 116.301 39.24 116.301 39.64ZM115.549 39.488C115.549 39.2107 115.487 38.9733 115.365 38.776C115.242 38.5733 115.074 38.4213 114.861 38.32C114.653 38.2133 114.421 38.16 114.165 38.16C113.797 38.16 113.482 38.2773 113.221 38.512C112.965 38.7467 112.818 39.072 112.781 39.488H115.549ZM117.798 36.904C117.659 36.904 117.542 36.856 117.446 36.76C117.35 36.664 117.302 36.5467 117.302 36.408C117.302 36.2693 117.35 36.152 117.446 36.056C117.542 35.96 117.659 35.912 117.798 35.912C117.931 35.912 118.043 35.96 118.134 36.056C118.23 36.152 118.278 36.2693 118.278 36.408C118.278 36.5467 118.23 36.664 118.134 36.76C118.043 36.856 117.931 36.904 117.798 36.904ZM118.15 37.616V42H117.422V37.616H118.15ZM121.686 37.536C122.22 37.536 122.652 37.6987 122.982 38.024C123.313 38.344 123.478 38.808 123.478 39.416V42H122.758V39.52C122.758 39.0827 122.649 38.7493 122.43 38.52C122.212 38.2853 121.913 38.168 121.534 38.168C121.15 38.168 120.844 38.288 120.614 38.528C120.39 38.768 120.278 39.1173 120.278 39.576V42H119.55V37.616H120.278V38.24C120.422 38.016 120.617 37.8427 120.862 37.72C121.113 37.5973 121.388 37.536 121.686 37.536ZM126.636 37.544C127.014 37.544 127.345 37.6267 127.628 37.792C127.916 37.9573 128.129 38.1653 128.268 38.416V37.616H129.004V42.096C129.004 42.496 128.918 42.8507 128.748 43.16C128.577 43.4747 128.332 43.72 128.012 43.896C127.697 44.072 127.329 44.16 126.908 44.16C126.332 44.16 125.852 44.024 125.468 43.752C125.084 43.48 124.857 43.1093 124.788 42.64H125.508C125.588 42.9067 125.753 43.12 126.004 43.28C126.254 43.4453 126.556 43.528 126.908 43.528C127.308 43.528 127.633 43.4027 127.884 43.152C128.14 42.9013 128.268 42.5493 128.268 42.096V41.176C128.124 41.432 127.91 41.6453 127.628 41.816C127.345 41.9867 127.014 42.072 126.636 42.072C126.246 42.072 125.892 41.976 125.572 41.784C125.257 41.592 125.009 41.3227 124.828 40.976C124.646 40.6293 124.556 40.2347 124.556 39.792C124.556 39.344 124.646 38.952 124.828 38.616C125.009 38.2747 125.257 38.0107 125.572 37.824C125.892 37.6373 126.246 37.544 126.636 37.544ZM128.268 39.8C128.268 39.4693 128.201 39.1813 128.068 38.936C127.934 38.6907 127.753 38.504 127.524 38.376C127.3 38.2427 127.052 38.176 126.78 38.176C126.508 38.176 126.26 38.24 126.036 38.368C125.812 38.496 125.633 38.6827 125.5 38.928C125.366 39.1733 125.3 39.4613 125.3 39.792C125.3 40.128 125.366 40.4213 125.5 40.672C125.633 40.9173 125.812 41.1067 126.036 41.24C126.26 41.368 126.508 41.432 126.78 41.432C127.052 41.432 127.3 41.368 127.524 41.24C127.753 41.1067 127.934 40.9173 128.068 40.672C128.201 40.4213 128.268 40.1307 128.268 39.8ZM132.415 39.8C132.415 39.3467 132.505 38.952 132.687 38.616C132.868 38.2747 133.119 38.0107 133.439 37.824C133.764 37.6373 134.135 37.544 134.551 37.544C135.089 37.544 135.532 37.6747 135.879 37.936C136.231 38.1973 136.463 38.56 136.575 39.024H135.791C135.716 38.7573 135.569 38.5467 135.351 38.392C135.137 38.2373 134.871 38.16 134.551 38.16C134.135 38.16 133.799 38.304 133.543 38.592C133.287 38.8747 133.159 39.2773 133.159 39.8C133.159 40.328 133.287 40.736 133.543 41.024C133.799 41.312 134.135 41.456 134.551 41.456C134.871 41.456 135.137 41.3813 135.351 41.232C135.564 41.0827 135.711 40.8693 135.791 40.592H136.575C136.457 41.04 136.223 41.4 135.871 41.672C135.519 41.9387 135.079 42.072 134.551 42.072C134.135 42.072 133.764 41.9787 133.439 41.792C133.119 41.6053 132.868 41.3413 132.687 41C132.505 40.6587 132.415 40.2587 132.415 39.8ZM139.618 42.072C139.207 42.072 138.834 41.9787 138.498 41.792C138.167 41.6053 137.906 41.3413 137.714 41C137.527 40.6533 137.434 40.2533 137.434 39.8C137.434 39.352 137.53 38.9573 137.722 38.616C137.919 38.2693 138.186 38.0053 138.522 37.824C138.858 37.6373 139.234 37.544 139.65 37.544C140.066 37.544 140.442 37.6373 140.778 37.824C141.114 38.0053 141.378 38.2667 141.57 38.608C141.767 38.9493 141.866 39.3467 141.866 39.8C141.866 40.2533 141.765 40.6533 141.562 41C141.365 41.3413 141.095 41.6053 140.754 41.792C140.413 41.9787 140.034 42.072 139.618 42.072ZM139.618 41.432C139.879 41.432 140.125 41.3707 140.354 41.248C140.583 41.1253 140.767 40.9413 140.906 40.696C141.05 40.4507 141.122 40.152 141.122 39.8C141.122 39.448 141.053 39.1493 140.914 38.904C140.775 38.6587 140.594 38.4773 140.37 38.36C140.146 38.2373 139.903 38.176 139.642 38.176C139.375 38.176 139.13 38.2373 138.906 38.36C138.687 38.4773 138.511 38.6587 138.378 38.904C138.245 39.1493 138.178 39.448 138.178 39.8C138.178 40.1573 138.242 40.4587 138.37 40.704C138.503 40.9493 138.679 41.1333 138.898 41.256C139.117 41.3733 139.357 41.432 139.618 41.432ZM148.255 37.536C148.597 37.536 148.901 37.608 149.167 37.752C149.434 37.8907 149.645 38.1013 149.799 38.384C149.954 38.6667 150.031 39.0107 150.031 39.416V42H149.311V39.52C149.311 39.0827 149.202 38.7493 148.983 38.52C148.77 38.2853 148.479 38.168 148.111 38.168C147.733 38.168 147.431 38.2907 147.207 38.536C146.983 38.776 146.871 39.1253 146.871 39.584V42H146.151V39.52C146.151 39.0827 146.042 38.7493 145.823 38.52C145.61 38.2853 145.319 38.168 144.951 38.168C144.573 38.168 144.271 38.2907 144.047 38.536C143.823 38.776 143.711 39.1253 143.711 39.584V42H142.983V37.616H143.711V38.248C143.855 38.0187 144.047 37.8427 144.287 37.72C144.533 37.5973 144.802 37.536 145.095 37.536C145.463 37.536 145.789 37.6187 146.071 37.784C146.354 37.9493 146.565 38.192 146.703 38.512C146.826 38.2027 147.029 37.9627 147.311 37.792C147.594 37.6213 147.909 37.536 148.255 37.536ZM155.385 39.64C155.385 39.7787 155.377 39.9253 155.361 40.08H151.857C151.884 40.512 152.031 40.8507 152.297 41.096C152.569 41.336 152.897 41.456 153.281 41.456C153.596 41.456 153.857 41.384 154.065 41.24C154.279 41.0907 154.428 40.8933 154.513 40.648H155.297C155.18 41.0693 154.945 41.4133 154.593 41.68C154.241 41.9413 153.804 42.072 153.281 42.072C152.865 42.072 152.492 41.9787 152.161 41.792C151.836 41.6053 151.58 41.3413 151.393 41C151.207 40.6533 151.113 40.2533 151.113 39.8C151.113 39.3467 151.204 38.9493 151.385 38.608C151.567 38.2667 151.82 38.0053 152.145 37.824C152.476 37.6373 152.855 37.544 153.281 37.544C153.697 37.544 154.065 37.6347 154.385 37.816C154.705 37.9973 154.951 38.248 155.121 38.568C155.297 38.8827 155.385 39.24 155.385 39.64ZM154.633 39.488C154.633 39.2107 154.572 38.9733 154.449 38.776C154.327 38.5733 154.159 38.4213 153.945 38.32C153.737 38.2133 153.505 38.16 153.249 38.16C152.881 38.16 152.567 38.2773 152.305 38.512C152.049 38.7467 151.903 39.072 151.865 39.488H154.633ZM158.058 42.072C157.722 42.072 157.421 42.016 157.154 41.904C156.888 41.7867 156.677 41.6267 156.522 41.424C156.368 41.216 156.282 40.9787 156.266 40.712H157.018C157.04 40.9307 157.141 41.1093 157.322 41.248C157.509 41.3867 157.752 41.456 158.05 41.456C158.328 41.456 158.546 41.3947 158.706 41.272C158.866 41.1493 158.946 40.9947 158.946 40.808C158.946 40.616 158.861 40.4747 158.69 40.384C158.52 40.288 158.256 40.1947 157.898 40.104C157.573 40.0187 157.306 39.9333 157.098 39.848C156.896 39.7573 156.72 39.6267 156.57 39.456C156.426 39.28 156.354 39.0507 156.354 38.768C156.354 38.544 156.421 38.3387 156.554 38.152C156.688 37.9653 156.877 37.8187 157.122 37.712C157.368 37.6 157.648 37.544 157.962 37.544C158.448 37.544 158.84 37.6667 159.138 37.912C159.437 38.1573 159.597 38.4933 159.618 38.92H158.89C158.874 38.6907 158.781 38.5067 158.61 38.368C158.445 38.2293 158.221 38.16 157.938 38.16C157.677 38.16 157.469 38.216 157.314 38.328C157.16 38.44 157.082 38.5867 157.082 38.768C157.082 38.912 157.128 39.032 157.218 39.128C157.314 39.2187 157.432 39.2933 157.57 39.352C157.714 39.4053 157.912 39.4667 158.162 39.536C158.477 39.6213 158.733 39.7067 158.93 39.792C159.128 39.872 159.296 39.9947 159.434 40.16C159.578 40.3253 159.653 40.5413 159.658 40.808C159.658 41.048 159.592 41.264 159.458 41.456C159.325 41.648 159.136 41.8 158.89 41.912C158.65 42.0187 158.373 42.072 158.058 42.072ZM164.923 38.216H164.003V42H163.275V38.216H162.707V37.616H163.275V37.304C163.275 36.8133 163.4 36.456 163.651 36.232C163.907 36.0027 164.315 35.888 164.875 35.888V36.496C164.555 36.496 164.328 36.56 164.195 36.688C164.067 36.8107 164.003 37.016 164.003 37.304V37.616H164.923V38.216ZM166.308 36.904C166.169 36.904 166.052 36.856 165.956 36.76C165.86 36.664 165.812 36.5467 165.812 36.408C165.812 36.2693 165.86 36.152 165.956 36.056C166.052 35.96 166.169 35.912 166.308 35.912C166.441 35.912 166.553 35.96 166.644 36.056C166.74 36.152 166.788 36.2693 166.788 36.408C166.788 36.5467 166.74 36.664 166.644 36.76C166.553 36.856 166.441 36.904 166.308 36.904ZM166.66 37.616V42H165.932V37.616H166.66ZM168.788 38.328C168.916 38.0773 169.098 37.8827 169.332 37.744C169.572 37.6053 169.863 37.536 170.204 37.536V38.288H170.012C169.196 38.288 168.788 38.7307 168.788 39.616V42H168.06V37.616H168.788V38.328ZM172.757 42.072C172.421 42.072 172.119 42.016 171.853 41.904C171.586 41.7867 171.375 41.6267 171.221 41.424C171.066 41.216 170.981 40.9787 170.965 40.712H171.717C171.738 40.9307 171.839 41.1093 172.021 41.248C172.207 41.3867 172.45 41.456 172.749 41.456C173.026 41.456 173.245 41.3947 173.405 41.272C173.565 41.1493 173.645 40.9947 173.645 40.808C173.645 40.616 173.559 40.4747 173.389 40.384C173.218 40.288 172.954 40.1947 172.597 40.104C172.271 40.0187 172.005 39.9333 171.797 39.848C171.594 39.7573 171.418 39.6267 171.269 39.456C171.125 39.28 171.053 39.0507 171.053 38.768C171.053 38.544 171.119 38.3387 171.253 38.152C171.386 37.9653 171.575 37.8187 171.821 37.712C172.066 37.6 172.346 37.544 172.661 37.544C173.146 37.544 173.538 37.6667 173.837 37.912C174.135 38.1573 174.295 38.4933 174.317 38.92H173.589C173.573 38.6907 173.479 38.5067 173.309 38.368C173.143 38.2293 172.919 38.16 172.637 38.16C172.375 38.16 172.167 38.216 172.013 38.328C171.858 38.44 171.781 38.5867 171.781 38.768C171.781 38.912 171.826 39.032 171.917 39.128C172.013 39.2187 172.13 39.2933 172.269 39.352C172.413 39.4053 172.61 39.4667 172.861 39.536C173.175 39.6213 173.431 39.7067 173.629 39.792C173.826 39.872 173.994 39.9947 174.133 40.16C174.277 40.3253 174.351 40.5413 174.357 40.808C174.357 41.048 174.29 41.264 174.157 41.456C174.023 41.648 173.834 41.8 173.589 41.912C173.349 42.0187 173.071 42.072 172.757 42.072ZM176.432 38.216V40.8C176.432 41.0133 176.478 41.1653 176.568 41.256C176.659 41.3413 176.816 41.384 177.04 41.384H177.576V42H176.92C176.515 42 176.211 41.9067 176.008 41.72C175.806 41.5333 175.704 41.2267 175.704 40.8V38.216H175.136V37.616H175.704V36.512H176.432V37.616H177.576V38.216H176.432Z" fill="#111111"/>
<path d="M10.5363 3.00477C14.2002 2.8798 16.97 5.24371 17.8969 6.44129C18.7147 5.29578 21.3318 3.00477 25.2574 3.00477C29.1831 3.00477 31.8001 6.01068 32.618 8.00331C36.5436 18.3129 24.4396 27.6852 17.8969 32.059C11.3542 27.6852 -1.24058 18.3129 3.01219 8.00331C3.66646 6.06275 6.87239 3.12973 10.5363 3.00477Z" fill="#3BE21C"/>
<path d="M32.618 8.00331C31.8001 6.01068 29.1831 3.00477 25.2574 3.00477C31.9136 18.0305 19.0853 29.9213 17.8969 32.059C24.4396 27.6852 36.5436 18.3129 32.618 8.00331Z" fill="#40DB24"/>
<path d="M17.8969 32.059C24.4396 27.6852 36.5436 18.3129 32.618 8.00331C32.0972 6.73452 30.847 5.05488 28.994 4.00203C34.403 20.5356 19.6285 30.5893 17.8969 32.059Z" fill="#34D118"/>
<path fill-rule="evenodd" clip-rule="evenodd" d="M1.59899 15.1464C1.59899 15.7268 1.24655 16.1972 0.811806 16.1972C0.787134 16.1972 0.762727 16.1957 0.738635 16.1927C0.94162 17.7512 1.65226 19.397 2.70857 21.05C3.96723 23.0196 5.69907 24.9718 7.58327 26.7586C9.76348 28.8261 12.1322 30.6578 14.1804 32.0282L17.6741 33.6938C17.7627 33.7361 17.867 33.7361 17.9557 33.6938L21.2464 32.125C23.2636 30.7461 25.5962 28.8788 27.7323 26.7637C29.5361 24.9776 31.1884 23.0257 32.3878 21.0562C33.3947 19.4028 34.0716 17.7545 34.2645 16.1923C34.2394 16.1956 34.2139 16.1972 34.1882 16.1972C33.7534 16.1972 33.401 15.7268 33.401 15.1464C33.401 14.566 33.7534 14.0956 34.1882 14.0956C34.6229 14.0956 34.9754 14.566 34.9754 15.1464C34.9754 15.1545 34.9753 15.1625 34.9752 15.1705C34.9912 15.2094 35 15.252 35 15.2966C35 17.2869 34.2041 19.3745 32.9698 21.4013C31.7335 23.4316 30.0419 25.426 28.2132 27.2367C24.7163 30.6993 20.6763 33.5304 18.2684 34.6757C18.2683 34.6762 18.2682 34.6766 18.2681 34.6771C18.2568 34.7302 18.2398 34.8066 18.2164 34.903C18.1696 35.0957 18.0973 35.3687 17.994 35.6949C17.9526 35.8256 17.9062 35.9652 17.8542 36.1119L17.902 36.1522C18.1577 36.3683 18.4101 36.5852 18.6602 36.8001C19.4755 37.5008 20.2669 38.1808 21.0731 38.7477C22.1239 39.4865 23.1341 39.9831 24.1532 40.0676C25.7624 40.201 27.0097 39.3353 27.406 38.2647C27.6027 37.7333 27.5953 37.1426 27.315 36.5688C27.1763 36.2849 26.9668 35.9973 26.6714 35.72C26.3918 35.9046 26.0525 36.0127 25.6867 36.0127C24.7302 36.0127 23.9549 35.2734 23.9549 34.3614C23.9549 33.4495 24.7302 32.7102 25.6867 32.7102C26.6431 32.7102 27.4184 33.4495 27.4184 34.3614C27.4184 34.5966 27.3669 34.8203 27.274 35.0227C27.6724 35.3837 27.9701 35.7765 28.1713 36.1885C28.5601 36.9845 28.5724 37.8199 28.2968 38.5645C27.7485 40.0458 26.0832 41.1317 24.0714 40.9649C22.7947 40.859 21.6141 40.2472 20.5125 39.4726C19.6652 38.8769 18.8258 38.1554 18.0035 37.4485L18.0031 37.4483C17.8334 37.3024 17.6645 37.1571 17.4963 37.0138C17.3426 37.3612 17.1624 37.7245 16.9522 38.0879C15.9516 39.8182 14.2054 41.6495 11.3457 41.5668C9.93495 41.5261 8.87172 41.0421 8.16444 40.2889C7.46362 39.5425 7.1486 38.5707 7.1486 37.6077C7.1486 35.7181 8.3837 33.6778 10.6285 33.3205C12.0216 32.9544 13.3148 33.2188 14.5123 33.7902C15.403 34.2153 16.256 34.8176 17.0775 35.4728L17.0897 35.4345C17.1862 35.1298 17.2533 34.8762 17.2961 34.7C17.3007 34.681 17.305 34.6628 17.3091 34.6457C14.8827 33.483 10.7319 30.6738 7.11281 27.2418C5.20405 25.4317 3.43163 23.4377 2.13425 21.4075C0.839382 19.3812 0 17.2912 0 15.2966C0 15.252 0.00881975 15.2094 0.0248309 15.1705C0.0246955 15.1625 0.0246274 15.1545 0.0246274 15.1464C0.0246274 14.566 0.377059 14.0956 0.811806 14.0956C1.24655 14.0956 1.59899 14.566 1.59899 15.1464ZM10.8581 34.1945C11.974 33.8952 13.0304 34.0903 14.0895 34.5957C14.9833 35.0222 15.8584 35.6601 16.7449 36.3847C16.5789 36.7885 16.3742 37.2221 16.125 37.653C15.1941 39.2627 13.71 40.734 11.3743 40.6666C10.1874 40.6323 9.38104 40.2343 8.8682 39.6881C8.34889 39.135 8.09321 38.3899 8.09321 37.6077C8.09321 36.0147 9.13097 34.461 10.8049 34.2057L10.8318 34.2015L10.8581 34.1945Z" fill="black"/>
<path fill-rule="evenodd" clip-rule="evenodd" d="M17.7693 15.3113C17.1258 15.3113 16.6379 15.8287 16.6379 16.424C16.6379 17.0192 17.1258 17.5366 17.7693 17.5366C18.4129 17.5366 18.9008 17.0192 18.9008 16.424C18.9008 15.8287 18.4129 15.3113 17.7693 15.3113ZM18.9886 17.7344C19.3306 17.4092 19.5474 16.9467 19.5474 16.424C19.5474 15.4104 18.7327 14.6237 17.7693 14.6237C16.806 14.6237 15.9913 15.4104 15.9913 16.424C15.9913 16.9467 16.208 17.4092 16.5501 17.7344C15.8324 17.9914 15.3586 18.4644 15.0542 18.9468C14.8333 19.2971 14.7055 19.6453 14.6327 19.9049C14.5961 20.0352 14.573 20.1448 14.5588 20.2234C14.5518 20.2627 14.5469 20.2944 14.5437 20.3173C14.5421 20.3287 14.5409 20.3379 14.5401 20.3447L14.5391 20.3532L14.5387 20.3561L14.5386 20.3572L14.5386 20.3576C14.5386 20.3578 14.5385 20.358 14.8598 20.3962C15.1811 20.4344 15.1811 20.4346 15.1811 20.4348L15.181 20.4355L15.1812 20.4333C15.1816 20.4306 15.1822 20.4257 15.1832 20.4187C15.1851 20.4046 15.1885 20.3823 15.1938 20.3529C15.2045 20.2939 15.2227 20.2069 15.2523 20.1014C15.3117 19.8893 15.4154 19.6085 15.5912 19.3299C15.9333 18.7874 16.5641 18.2243 17.7693 18.2243C18.9746 18.2243 19.6053 18.7874 19.9475 19.3299C20.1233 19.6085 20.227 19.8893 20.2864 20.1014C20.316 20.2069 20.3342 20.2939 20.3448 20.3529C20.3501 20.3823 20.3535 20.4046 20.3555 20.4187C20.3565 20.4257 20.3571 20.4306 20.3574 20.4333L20.3576 20.4348C20.3576 20.4346 20.3576 20.4344 20.6789 20.3962C21.0002 20.358 21.0001 20.3578 21.0001 20.3576L20.9999 20.3561L20.9996 20.3532L20.9986 20.3447C20.9978 20.3379 20.9966 20.3287 20.995 20.3173C20.9918 20.2944 20.9869 20.2627 20.9798 20.2234C20.9657 20.1448 20.9426 20.0352 20.906 19.9049C20.8332 19.6453 20.7054 19.2971 20.4845 18.9468C20.1801 18.4644 19.7063 17.9914 18.9886 17.7344Z" fill="white"/>
<path fill-rule="evenodd" clip-rule="evenodd" d="M11.9527 14.2392C11.2279 14.2392 10.6026 14.8507 10.6026 15.6513C10.6026 16.452 11.2279 17.0634 11.9527 17.0634C12.6775 17.0634 13.3028 16.452 13.3028 15.6513C13.3028 14.8507 12.6775 14.2392 11.9527 14.2392ZM9.90574 15.6513C9.90574 14.5208 10.8013 13.5668 11.9527 13.5668C13.104 13.5668 13.9996 14.5208 13.9996 15.6513C13.9996 16.7818 13.104 17.7359 11.9527 17.7359C11.9218 17.7359 11.8911 17.7352 11.8606 17.7338C11.848 17.7352 11.8351 17.7359 11.822 17.7359C10.4365 17.7359 9.68925 18.4465 9.27019 19.1764C9.05765 19.5467 8.93204 19.9203 8.85979 20.2034C8.82385 20.3443 8.80157 20.461 8.78841 20.5412C8.78184 20.5813 8.77756 20.6121 8.775 20.6322C8.77372 20.6422 8.77288 20.6495 8.77239 20.654L8.77192 20.6583L8.77191 20.6584L8.77189 20.6585C8.75406 20.8433 8.58446 20.9792 8.39294 20.9622C8.20133 20.9451 8.06035 20.7814 8.07804 20.5965L8.42498 20.6274C8.07804 20.5965 8.07805 20.5963 8.07807 20.5961L8.07811 20.5957L8.07821 20.5947L8.07851 20.5917L8.07953 20.5823C8.08039 20.5745 8.08166 20.5637 8.08339 20.55C8.08687 20.5228 8.09224 20.4843 8.10015 20.4361C8.11594 20.3398 8.14191 20.2044 8.18317 20.0427C8.26534 19.7206 8.40994 19.2873 8.66064 18.8506C9.03375 18.2007 9.64685 17.5402 10.6223 17.2362C10.1809 16.8504 9.90574 16.278 9.90574 15.6513Z" fill="white"/>
<path fill-rule="evenodd" clip-rule="evenodd" d="M23.3996 14.2392C24.0585 14.2392 24.6269 14.8507 24.6269 15.6513C24.6269 16.452 24.0585 17.0634 23.3996 17.0634C22.7407 17.0634 22.1722 16.452 22.1722 15.6513C22.1722 14.8507 22.7407 14.2392 23.3996 14.2392ZM25.2604 15.6513C25.2604 14.5208 24.4462 13.5668 23.3996 13.5668C22.3529 13.5668 21.5387 14.5208 21.5387 15.6513C21.5387 16.7818 22.3529 17.7359 23.3996 17.7359C23.4276 17.7359 23.4555 17.7352 23.4832 17.7338C23.4948 17.7352 23.5065 17.7359 23.5184 17.7359C24.7779 17.7359 25.4572 18.4465 25.8382 19.1764C26.0314 19.5467 26.1456 19.9203 26.2113 20.2034C26.244 20.3443 26.2642 20.461 26.2762 20.5412C26.2822 20.5813 26.286 20.6121 26.2884 20.6322C26.2895 20.6422 26.2903 20.6495 26.2908 20.654L26.2912 20.6583L26.2912 20.6584L26.2912 20.6585C26.3074 20.8433 26.4616 20.9792 26.6357 20.9622C26.8099 20.9451 26.9381 20.7814 26.922 20.5965L26.6066 20.6274C26.922 20.5965 26.922 20.5963 26.9219 20.5961L26.9219 20.5957L26.9218 20.5947L26.9215 20.5917L26.9206 20.5823C26.9198 20.5745 26.9187 20.5637 26.9171 20.55C26.9139 20.5228 26.9091 20.4843 26.9019 20.4361C26.8875 20.3398 26.8639 20.2044 26.8264 20.0427C26.7517 19.7206 26.6202 19.2873 26.3923 18.8506C26.0531 18.2007 25.4958 17.5402 24.609 17.2362C25.0103 16.8504 25.2604 16.278 25.2604 15.6513Z" fill="white"/>
</svg>
